G04 #@! TF.GenerationSoftware,KiCad,Pcbnew,9.0.5*
G04 #@! TF.CreationDate,2025-11-14T17:50:21-08:00*
G04 #@! TF.ProjectId,ZB_Camera_01,5a425f43-616d-4657-9261-5f30312e6b69,rev?*
G04 #@! TF.SameCoordinates,Original*
G04 #@! TF.FileFunction,Legend,Top*
G04 #@! TF.FilePolarity,Positive*
%FSLAX46Y46*%
G04 Gerber Fmt 4.6, Leading zero omitted, Abs format (unit mm)*
G04 Created by KiCad (PCBNEW 9.0.5) date 2025-11-14 17:50:21*
%MOMM*%
%LPD*%
G01*
G04 APERTURE LIST*
G04 Aperture macros list*
%AMRoundRect*
0 Rectangle with rounded corners*
0 $1 Rounding radius*
0 $2 $3 $4 $5 $6 $7 $8 $9 X,Y pos of 4 corners*
0 Add a 4 corners polygon primitive as box body*
4,1,4,$2,$3,$4,$5,$6,$7,$8,$9,$2,$3,0*
0 Add four circle primitives for the rounded corners*
1,1,$1+$1,$2,$3*
1,1,$1+$1,$4,$5*
1,1,$1+$1,$6,$7*
1,1,$1+$1,$8,$9*
0 Add four rect primitives between the rounded corners*
20,1,$1+$1,$2,$3,$4,$5,0*
20,1,$1+$1,$4,$5,$6,$7,0*
20,1,$1+$1,$6,$7,$8,$9,0*
20,1,$1+$1,$8,$9,$2,$3,0*%
G04 Aperture macros list end*
%ADD10C,0.100000*%
%ADD11C,0.200000*%
%ADD12C,0.300000*%
%ADD13C,0.120000*%
%ADD14C,0.127000*%
%ADD15C,0.010000*%
%ADD16R,0.610000X2.000000*%
%ADD17R,2.680000X3.600000*%
%ADD18RoundRect,0.102000X0.800000X1.200000X-0.800000X1.200000X-0.800000X-1.200000X0.800000X-1.200000X0*%
%ADD19RoundRect,0.102000X-0.150000X-0.400000X0.150000X-0.400000X0.150000X0.400000X-0.150000X0.400000X0*%
%ADD20RoundRect,0.102000X-0.200000X-0.400000X0.200000X-0.400000X0.200000X0.400000X-0.200000X0.400000X0*%
%ADD21C,1.600000*%
%ADD22RoundRect,0.102000X-0.800000X-1.200000X0.800000X-1.200000X0.800000X1.200000X-0.800000X1.200000X0*%
%ADD23RoundRect,0.150000X0.150000X-0.587500X0.150000X0.587500X-0.150000X0.587500X-0.150000X-0.587500X0*%
G04 APERTURE END LIST*
D10*
X129149976Y-115600000D02*
G75*
G02*
X120849976Y-115600000I-4150000J0D01*
G01*
X120849976Y-115600000D02*
G75*
G02*
X129149976Y-115600000I4150000J0D01*
G01*
X118700000Y-127900000D02*
X131300000Y-127900000D01*
X131300000Y-129900000D01*
X118700000Y-129900000D01*
X118700000Y-127900000D01*
X121999952Y-120100000D02*
X128000000Y-120100000D01*
X128000000Y-127900000D01*
X121999952Y-127900000D01*
X121999952Y-120100000D01*
X120499976Y-111100000D02*
X129499976Y-111100000D01*
X129499976Y-120100000D01*
X120499976Y-120100000D01*
X120499976Y-111100000D01*
D11*
X122667075Y-115071803D02*
X122857551Y-115071803D01*
X122857551Y-115071803D02*
X122952789Y-115119422D01*
X122952789Y-115119422D02*
X123048027Y-115214660D01*
X123048027Y-115214660D02*
X123095646Y-115405136D01*
X123095646Y-115405136D02*
X123095646Y-115738469D01*
X123095646Y-115738469D02*
X123048027Y-115928945D01*
X123048027Y-115928945D02*
X122952789Y-116024184D01*
X122952789Y-116024184D02*
X122857551Y-116071803D01*
X122857551Y-116071803D02*
X122667075Y-116071803D01*
X122667075Y-116071803D02*
X122571837Y-116024184D01*
X122571837Y-116024184D02*
X122476599Y-115928945D01*
X122476599Y-115928945D02*
X122428980Y-115738469D01*
X122428980Y-115738469D02*
X122428980Y-115405136D01*
X122428980Y-115405136D02*
X122476599Y-115214660D01*
X122476599Y-115214660D02*
X122571837Y-115119422D01*
X122571837Y-115119422D02*
X122667075Y-115071803D01*
X123381361Y-115071803D02*
X123714694Y-116071803D01*
X123714694Y-116071803D02*
X124048027Y-115071803D01*
X124333742Y-115167041D02*
X124381361Y-115119422D01*
X124381361Y-115119422D02*
X124476599Y-115071803D01*
X124476599Y-115071803D02*
X124714694Y-115071803D01*
X124714694Y-115071803D02*
X124809932Y-115119422D01*
X124809932Y-115119422D02*
X124857551Y-115167041D01*
X124857551Y-115167041D02*
X124905170Y-115262279D01*
X124905170Y-115262279D02*
X124905170Y-115357517D01*
X124905170Y-115357517D02*
X124857551Y-115500374D01*
X124857551Y-115500374D02*
X124286123Y-116071803D01*
X124286123Y-116071803D02*
X124905170Y-116071803D01*
X125762313Y-115071803D02*
X125571837Y-115071803D01*
X125571837Y-115071803D02*
X125476599Y-115119422D01*
X125476599Y-115119422D02*
X125428980Y-115167041D01*
X125428980Y-115167041D02*
X125333742Y-115309898D01*
X125333742Y-115309898D02*
X125286123Y-115500374D01*
X125286123Y-115500374D02*
X125286123Y-115881326D01*
X125286123Y-115881326D02*
X125333742Y-115976564D01*
X125333742Y-115976564D02*
X125381361Y-116024184D01*
X125381361Y-116024184D02*
X125476599Y-116071803D01*
X125476599Y-116071803D02*
X125667075Y-116071803D01*
X125667075Y-116071803D02*
X125762313Y-116024184D01*
X125762313Y-116024184D02*
X125809932Y-115976564D01*
X125809932Y-115976564D02*
X125857551Y-115881326D01*
X125857551Y-115881326D02*
X125857551Y-115643231D01*
X125857551Y-115643231D02*
X125809932Y-115547993D01*
X125809932Y-115547993D02*
X125762313Y-115500374D01*
X125762313Y-115500374D02*
X125667075Y-115452755D01*
X125667075Y-115452755D02*
X125476599Y-115452755D01*
X125476599Y-115452755D02*
X125381361Y-115500374D01*
X125381361Y-115500374D02*
X125333742Y-115547993D01*
X125333742Y-115547993D02*
X125286123Y-115643231D01*
X126714694Y-115405136D02*
X126714694Y-116071803D01*
X126476599Y-115024184D02*
X126238504Y-115738469D01*
X126238504Y-115738469D02*
X126857551Y-115738469D01*
X127428980Y-115071803D02*
X127524218Y-115071803D01*
X127524218Y-115071803D02*
X127619456Y-115119422D01*
X127619456Y-115119422D02*
X127667075Y-115167041D01*
X127667075Y-115167041D02*
X127714694Y-115262279D01*
X127714694Y-115262279D02*
X127762313Y-115452755D01*
X127762313Y-115452755D02*
X127762313Y-115690850D01*
X127762313Y-115690850D02*
X127714694Y-115881326D01*
X127714694Y-115881326D02*
X127667075Y-115976564D01*
X127667075Y-115976564D02*
X127619456Y-116024184D01*
X127619456Y-116024184D02*
X127524218Y-116071803D01*
X127524218Y-116071803D02*
X127428980Y-116071803D01*
X127428980Y-116071803D02*
X127333742Y-116024184D01*
X127333742Y-116024184D02*
X127286123Y-115976564D01*
X127286123Y-115976564D02*
X127238504Y-115881326D01*
X127238504Y-115881326D02*
X127190885Y-115690850D01*
X127190885Y-115690850D02*
X127190885Y-115452755D01*
X127190885Y-115452755D02*
X127238504Y-115262279D01*
X127238504Y-115262279D02*
X127286123Y-115167041D01*
X127286123Y-115167041D02*
X127333742Y-115119422D01*
X127333742Y-115119422D02*
X127428980Y-115071803D01*
D12*
X102305555Y-141198611D02*
X102305555Y-140198611D01*
X102305555Y-140198611D02*
X103805555Y-141198611D01*
X103805555Y-141198611D02*
X103805555Y-140198611D01*
X103019841Y-139127183D02*
X103091269Y-138912897D01*
X103091269Y-138912897D02*
X103162698Y-138841468D01*
X103162698Y-138841468D02*
X103305555Y-138770040D01*
X103305555Y-138770040D02*
X103519841Y-138770040D01*
X103519841Y-138770040D02*
X103662698Y-138841468D01*
X103662698Y-138841468D02*
X103734127Y-138912897D01*
X103734127Y-138912897D02*
X103805555Y-139055754D01*
X103805555Y-139055754D02*
X103805555Y-139627183D01*
X103805555Y-139627183D02*
X102305555Y-139627183D01*
X102305555Y-139627183D02*
X102305555Y-139127183D01*
X102305555Y-139127183D02*
X102376984Y-138984326D01*
X102376984Y-138984326D02*
X102448412Y-138912897D01*
X102448412Y-138912897D02*
X102591269Y-138841468D01*
X102591269Y-138841468D02*
X102734127Y-138841468D01*
X102734127Y-138841468D02*
X102876984Y-138912897D01*
X102876984Y-138912897D02*
X102948412Y-138984326D01*
X102948412Y-138984326D02*
X103019841Y-139127183D01*
X103019841Y-139127183D02*
X103019841Y-139627183D01*
X103948412Y-138484326D02*
X103948412Y-137341468D01*
X102448412Y-137055754D02*
X102376984Y-136984326D01*
X102376984Y-136984326D02*
X102305555Y-136841469D01*
X102305555Y-136841469D02*
X102305555Y-136484326D01*
X102305555Y-136484326D02*
X102376984Y-136341469D01*
X102376984Y-136341469D02*
X102448412Y-136270040D01*
X102448412Y-136270040D02*
X102591269Y-136198611D01*
X102591269Y-136198611D02*
X102734127Y-136198611D01*
X102734127Y-136198611D02*
X102948412Y-136270040D01*
X102948412Y-136270040D02*
X103805555Y-137127183D01*
X103805555Y-137127183D02*
X103805555Y-136198611D01*
X102305555Y-134841469D02*
X102305555Y-135555755D01*
X102305555Y-135555755D02*
X103019841Y-135627183D01*
X103019841Y-135627183D02*
X102948412Y-135555755D01*
X102948412Y-135555755D02*
X102876984Y-135412898D01*
X102876984Y-135412898D02*
X102876984Y-135055755D01*
X102876984Y-135055755D02*
X102948412Y-134912898D01*
X102948412Y-134912898D02*
X103019841Y-134841469D01*
X103019841Y-134841469D02*
X103162698Y-134770040D01*
X103162698Y-134770040D02*
X103519841Y-134770040D01*
X103519841Y-134770040D02*
X103662698Y-134841469D01*
X103662698Y-134841469D02*
X103734127Y-134912898D01*
X103734127Y-134912898D02*
X103805555Y-135055755D01*
X103805555Y-135055755D02*
X103805555Y-135412898D01*
X103805555Y-135412898D02*
X103734127Y-135555755D01*
X103734127Y-135555755D02*
X103662698Y-135627183D01*
X103948412Y-134484327D02*
X103948412Y-133341469D01*
X103662698Y-132127184D02*
X103734127Y-132198612D01*
X103734127Y-132198612D02*
X103805555Y-132412898D01*
X103805555Y-132412898D02*
X103805555Y-132555755D01*
X103805555Y-132555755D02*
X103734127Y-132770041D01*
X103734127Y-132770041D02*
X103591269Y-132912898D01*
X103591269Y-132912898D02*
X103448412Y-132984327D01*
X103448412Y-132984327D02*
X103162698Y-133055755D01*
X103162698Y-133055755D02*
X102948412Y-133055755D01*
X102948412Y-133055755D02*
X102662698Y-132984327D01*
X102662698Y-132984327D02*
X102519841Y-132912898D01*
X102519841Y-132912898D02*
X102376984Y-132770041D01*
X102376984Y-132770041D02*
X102305555Y-132555755D01*
X102305555Y-132555755D02*
X102305555Y-132412898D01*
X102305555Y-132412898D02*
X102376984Y-132198612D01*
X102376984Y-132198612D02*
X102448412Y-132127184D01*
X103805555Y-130841470D02*
X103019841Y-130841470D01*
X103019841Y-130841470D02*
X102876984Y-130912898D01*
X102876984Y-130912898D02*
X102805555Y-131055755D01*
X102805555Y-131055755D02*
X102805555Y-131341470D01*
X102805555Y-131341470D02*
X102876984Y-131484327D01*
X103734127Y-130841470D02*
X103805555Y-130984327D01*
X103805555Y-130984327D02*
X103805555Y-131341470D01*
X103805555Y-131341470D02*
X103734127Y-131484327D01*
X103734127Y-131484327D02*
X103591269Y-131555755D01*
X103591269Y-131555755D02*
X103448412Y-131555755D01*
X103448412Y-131555755D02*
X103305555Y-131484327D01*
X103305555Y-131484327D02*
X103234127Y-131341470D01*
X103234127Y-131341470D02*
X103234127Y-130984327D01*
X103234127Y-130984327D02*
X103162698Y-130841470D01*
X103805555Y-130127184D02*
X102805555Y-130127184D01*
X102948412Y-130127184D02*
X102876984Y-130055755D01*
X102876984Y-130055755D02*
X102805555Y-129912898D01*
X102805555Y-129912898D02*
X102805555Y-129698612D01*
X102805555Y-129698612D02*
X102876984Y-129555755D01*
X102876984Y-129555755D02*
X103019841Y-129484327D01*
X103019841Y-129484327D02*
X103805555Y-129484327D01*
X103019841Y-129484327D02*
X102876984Y-129412898D01*
X102876984Y-129412898D02*
X102805555Y-129270041D01*
X102805555Y-129270041D02*
X102805555Y-129055755D01*
X102805555Y-129055755D02*
X102876984Y-128912898D01*
X102876984Y-128912898D02*
X103019841Y-128841469D01*
X103019841Y-128841469D02*
X103805555Y-128841469D01*
X103734127Y-127555755D02*
X103805555Y-127698612D01*
X103805555Y-127698612D02*
X103805555Y-127984327D01*
X103805555Y-127984327D02*
X103734127Y-128127184D01*
X103734127Y-128127184D02*
X103591269Y-128198612D01*
X103591269Y-128198612D02*
X103019841Y-128198612D01*
X103019841Y-128198612D02*
X102876984Y-128127184D01*
X102876984Y-128127184D02*
X102805555Y-127984327D01*
X102805555Y-127984327D02*
X102805555Y-127698612D01*
X102805555Y-127698612D02*
X102876984Y-127555755D01*
X102876984Y-127555755D02*
X103019841Y-127484327D01*
X103019841Y-127484327D02*
X103162698Y-127484327D01*
X103162698Y-127484327D02*
X103305555Y-128198612D01*
X103805555Y-126841470D02*
X102805555Y-126841470D01*
X103091269Y-126841470D02*
X102948412Y-126770041D01*
X102948412Y-126770041D02*
X102876984Y-126698613D01*
X102876984Y-126698613D02*
X102805555Y-126555755D01*
X102805555Y-126555755D02*
X102805555Y-126412898D01*
X103805555Y-125270042D02*
X103019841Y-125270042D01*
X103019841Y-125270042D02*
X102876984Y-125341470D01*
X102876984Y-125341470D02*
X102805555Y-125484327D01*
X102805555Y-125484327D02*
X102805555Y-125770042D01*
X102805555Y-125770042D02*
X102876984Y-125912899D01*
X103734127Y-125270042D02*
X103805555Y-125412899D01*
X103805555Y-125412899D02*
X103805555Y-125770042D01*
X103805555Y-125770042D02*
X103734127Y-125912899D01*
X103734127Y-125912899D02*
X103591269Y-125984327D01*
X103591269Y-125984327D02*
X103448412Y-125984327D01*
X103448412Y-125984327D02*
X103305555Y-125912899D01*
X103305555Y-125912899D02*
X103234127Y-125770042D01*
X103234127Y-125770042D02*
X103234127Y-125412899D01*
X103234127Y-125412899D02*
X103162698Y-125270042D01*
X103948412Y-124912899D02*
X103948412Y-123770041D01*
X102305555Y-123127184D02*
X102305555Y-122984327D01*
X102305555Y-122984327D02*
X102376984Y-122841470D01*
X102376984Y-122841470D02*
X102448412Y-122770042D01*
X102448412Y-122770042D02*
X102591269Y-122698613D01*
X102591269Y-122698613D02*
X102876984Y-122627184D01*
X102876984Y-122627184D02*
X103234127Y-122627184D01*
X103234127Y-122627184D02*
X103519841Y-122698613D01*
X103519841Y-122698613D02*
X103662698Y-122770042D01*
X103662698Y-122770042D02*
X103734127Y-122841470D01*
X103734127Y-122841470D02*
X103805555Y-122984327D01*
X103805555Y-122984327D02*
X103805555Y-123127184D01*
X103805555Y-123127184D02*
X103734127Y-123270042D01*
X103734127Y-123270042D02*
X103662698Y-123341470D01*
X103662698Y-123341470D02*
X103519841Y-123412899D01*
X103519841Y-123412899D02*
X103234127Y-123484327D01*
X103234127Y-123484327D02*
X102876984Y-123484327D01*
X102876984Y-123484327D02*
X102591269Y-123412899D01*
X102591269Y-123412899D02*
X102448412Y-123341470D01*
X102448412Y-123341470D02*
X102376984Y-123270042D01*
X102376984Y-123270042D02*
X102305555Y-123127184D01*
X103805555Y-121198613D02*
X103805555Y-122055756D01*
X103805555Y-121627185D02*
X102305555Y-121627185D01*
X102305555Y-121627185D02*
X102519841Y-121770042D01*
X102519841Y-121770042D02*
X102662698Y-121912899D01*
X102662698Y-121912899D02*
X102734127Y-122055756D01*
X103234127Y-120555757D02*
X103234127Y-119412900D01*
X102305555Y-118412899D02*
X102305555Y-118270042D01*
X102305555Y-118270042D02*
X102376984Y-118127185D01*
X102376984Y-118127185D02*
X102448412Y-118055757D01*
X102448412Y-118055757D02*
X102591269Y-117984328D01*
X102591269Y-117984328D02*
X102876984Y-117912899D01*
X102876984Y-117912899D02*
X103234127Y-117912899D01*
X103234127Y-117912899D02*
X103519841Y-117984328D01*
X103519841Y-117984328D02*
X103662698Y-118055757D01*
X103662698Y-118055757D02*
X103734127Y-118127185D01*
X103734127Y-118127185D02*
X103805555Y-118270042D01*
X103805555Y-118270042D02*
X103805555Y-118412899D01*
X103805555Y-118412899D02*
X103734127Y-118555757D01*
X103734127Y-118555757D02*
X103662698Y-118627185D01*
X103662698Y-118627185D02*
X103519841Y-118698614D01*
X103519841Y-118698614D02*
X103234127Y-118770042D01*
X103234127Y-118770042D02*
X102876984Y-118770042D01*
X102876984Y-118770042D02*
X102591269Y-118698614D01*
X102591269Y-118698614D02*
X102448412Y-118627185D01*
X102448412Y-118627185D02*
X102376984Y-118555757D01*
X102376984Y-118555757D02*
X102305555Y-118412899D01*
X103805555Y-116484328D02*
X103805555Y-117341471D01*
X103805555Y-116912900D02*
X102305555Y-116912900D01*
X102305555Y-116912900D02*
X102519841Y-117055757D01*
X102519841Y-117055757D02*
X102662698Y-117198614D01*
X102662698Y-117198614D02*
X102734127Y-117341471D01*
D11*
X124666666Y-144302219D02*
X124666666Y-145016504D01*
X124666666Y-145016504D02*
X124619047Y-145159361D01*
X124619047Y-145159361D02*
X124523809Y-145254600D01*
X124523809Y-145254600D02*
X124380952Y-145302219D01*
X124380952Y-145302219D02*
X124285714Y-145302219D01*
X125666666Y-145302219D02*
X125095238Y-145302219D01*
X125380952Y-145302219D02*
X125380952Y-144302219D01*
X125380952Y-144302219D02*
X125285714Y-144445076D01*
X125285714Y-144445076D02*
X125190476Y-144540314D01*
X125190476Y-144540314D02*
X125095238Y-144587933D01*
X138579881Y-118408619D02*
X138579881Y-117408619D01*
X138579881Y-117408619D02*
X138817976Y-117408619D01*
X138817976Y-117408619D02*
X138960833Y-117456238D01*
X138960833Y-117456238D02*
X139056071Y-117551476D01*
X139056071Y-117551476D02*
X139103690Y-117646714D01*
X139103690Y-117646714D02*
X139151309Y-117837190D01*
X139151309Y-117837190D02*
X139151309Y-117980047D01*
X139151309Y-117980047D02*
X139103690Y-118170523D01*
X139103690Y-118170523D02*
X139056071Y-118265761D01*
X139056071Y-118265761D02*
X138960833Y-118361000D01*
X138960833Y-118361000D02*
X138817976Y-118408619D01*
X138817976Y-118408619D02*
X138579881Y-118408619D01*
X140103690Y-118408619D02*
X139532262Y-118408619D01*
X139817976Y-118408619D02*
X139817976Y-117408619D01*
X139817976Y-117408619D02*
X139722738Y-117551476D01*
X139722738Y-117551476D02*
X139627500Y-117646714D01*
X139627500Y-117646714D02*
X139532262Y-117694333D01*
X133009815Y-130309633D02*
X133009815Y-131023918D01*
X133009815Y-131023918D02*
X132962196Y-131166775D01*
X132962196Y-131166775D02*
X132866958Y-131262014D01*
X132866958Y-131262014D02*
X132724101Y-131309633D01*
X132724101Y-131309633D02*
X132628863Y-131309633D01*
X133438387Y-130404871D02*
X133486006Y-130357252D01*
X133486006Y-130357252D02*
X133581244Y-130309633D01*
X133581244Y-130309633D02*
X133819339Y-130309633D01*
X133819339Y-130309633D02*
X133914577Y-130357252D01*
X133914577Y-130357252D02*
X133962196Y-130404871D01*
X133962196Y-130404871D02*
X134009815Y-130500109D01*
X134009815Y-130500109D02*
X134009815Y-130595347D01*
X134009815Y-130595347D02*
X133962196Y-130738204D01*
X133962196Y-130738204D02*
X133390768Y-131309633D01*
X133390768Y-131309633D02*
X134009815Y-131309633D01*
X142148792Y-125666806D02*
X141815459Y-125190615D01*
X141577364Y-125666806D02*
X141577364Y-124666806D01*
X141577364Y-124666806D02*
X141958316Y-124666806D01*
X141958316Y-124666806D02*
X142053554Y-124714425D01*
X142053554Y-124714425D02*
X142101173Y-124762044D01*
X142101173Y-124762044D02*
X142148792Y-124857282D01*
X142148792Y-124857282D02*
X142148792Y-125000139D01*
X142148792Y-125000139D02*
X142101173Y-125095377D01*
X142101173Y-125095377D02*
X142053554Y-125142996D01*
X142053554Y-125142996D02*
X141958316Y-125190615D01*
X141958316Y-125190615D02*
X141577364Y-125190615D01*
X142624983Y-125666806D02*
X142815459Y-125666806D01*
X142815459Y-125666806D02*
X142910697Y-125619187D01*
X142910697Y-125619187D02*
X142958316Y-125571567D01*
X142958316Y-125571567D02*
X143053554Y-125428710D01*
X143053554Y-125428710D02*
X143101173Y-125238234D01*
X143101173Y-125238234D02*
X143101173Y-124857282D01*
X143101173Y-124857282D02*
X143053554Y-124762044D01*
X143053554Y-124762044D02*
X143005935Y-124714425D01*
X143005935Y-124714425D02*
X142910697Y-124666806D01*
X142910697Y-124666806D02*
X142720221Y-124666806D01*
X142720221Y-124666806D02*
X142624983Y-124714425D01*
X142624983Y-124714425D02*
X142577364Y-124762044D01*
X142577364Y-124762044D02*
X142529745Y-124857282D01*
X142529745Y-124857282D02*
X142529745Y-125095377D01*
X142529745Y-125095377D02*
X142577364Y-125190615D01*
X142577364Y-125190615D02*
X142624983Y-125238234D01*
X142624983Y-125238234D02*
X142720221Y-125285853D01*
X142720221Y-125285853D02*
X142910697Y-125285853D01*
X142910697Y-125285853D02*
X143005935Y-125238234D01*
X143005935Y-125238234D02*
X143053554Y-125190615D01*
X143053554Y-125190615D02*
X143101173Y-125095377D01*
X140918677Y-131283319D02*
X141109153Y-131283319D01*
X141109153Y-131283319D02*
X141204391Y-131235700D01*
X141204391Y-131235700D02*
X141252010Y-131188080D01*
X141252010Y-131188080D02*
X141347248Y-131045223D01*
X141347248Y-131045223D02*
X141394867Y-130854747D01*
X141394867Y-130854747D02*
X141394867Y-130473795D01*
X141394867Y-130473795D02*
X141347248Y-130378557D01*
X141347248Y-130378557D02*
X141299629Y-130330938D01*
X141299629Y-130330938D02*
X141204391Y-130283319D01*
X141204391Y-130283319D02*
X141013915Y-130283319D01*
X141013915Y-130283319D02*
X140918677Y-130330938D01*
X140918677Y-130330938D02*
X140871058Y-130378557D01*
X140871058Y-130378557D02*
X140823439Y-130473795D01*
X140823439Y-130473795D02*
X140823439Y-130711890D01*
X140823439Y-130711890D02*
X140871058Y-130807128D01*
X140871058Y-130807128D02*
X140918677Y-130854747D01*
X140918677Y-130854747D02*
X141013915Y-130902366D01*
X141013915Y-130902366D02*
X141204391Y-130902366D01*
X141204391Y-130902366D02*
X141299629Y-130854747D01*
X141299629Y-130854747D02*
X141347248Y-130807128D01*
X141347248Y-130807128D02*
X141394867Y-130711890D01*
X141823439Y-131188080D02*
X141871058Y-131235700D01*
X141871058Y-131235700D02*
X141823439Y-131283319D01*
X141823439Y-131283319D02*
X141775820Y-131235700D01*
X141775820Y-131235700D02*
X141823439Y-131188080D01*
X141823439Y-131188080D02*
X141823439Y-131283319D01*
X142490105Y-130283319D02*
X142585343Y-130283319D01*
X142585343Y-130283319D02*
X142680581Y-130330938D01*
X142680581Y-130330938D02*
X142728200Y-130378557D01*
X142728200Y-130378557D02*
X142775819Y-130473795D01*
X142775819Y-130473795D02*
X142823438Y-130664271D01*
X142823438Y-130664271D02*
X142823438Y-130902366D01*
X142823438Y-130902366D02*
X142775819Y-131092842D01*
X142775819Y-131092842D02*
X142728200Y-131188080D01*
X142728200Y-131188080D02*
X142680581Y-131235700D01*
X142680581Y-131235700D02*
X142585343Y-131283319D01*
X142585343Y-131283319D02*
X142490105Y-131283319D01*
X142490105Y-131283319D02*
X142394867Y-131235700D01*
X142394867Y-131235700D02*
X142347248Y-131188080D01*
X142347248Y-131188080D02*
X142299629Y-131092842D01*
X142299629Y-131092842D02*
X142252010Y-130902366D01*
X142252010Y-130902366D02*
X142252010Y-130664271D01*
X142252010Y-130664271D02*
X142299629Y-130473795D01*
X142299629Y-130473795D02*
X142347248Y-130378557D01*
X142347248Y-130378557D02*
X142394867Y-130330938D01*
X142394867Y-130330938D02*
X142490105Y-130283319D01*
X143299629Y-131283319D02*
X143490105Y-131283319D01*
X143490105Y-131283319D02*
X143585343Y-131235700D01*
X143585343Y-131235700D02*
X143632962Y-131188080D01*
X143632962Y-131188080D02*
X143728200Y-131045223D01*
X143728200Y-131045223D02*
X143775819Y-130854747D01*
X143775819Y-130854747D02*
X143775819Y-130473795D01*
X143775819Y-130473795D02*
X143728200Y-130378557D01*
X143728200Y-130378557D02*
X143680581Y-130330938D01*
X143680581Y-130330938D02*
X143585343Y-130283319D01*
X143585343Y-130283319D02*
X143394867Y-130283319D01*
X143394867Y-130283319D02*
X143299629Y-130330938D01*
X143299629Y-130330938D02*
X143252010Y-130378557D01*
X143252010Y-130378557D02*
X143204391Y-130473795D01*
X143204391Y-130473795D02*
X143204391Y-130711890D01*
X143204391Y-130711890D02*
X143252010Y-130807128D01*
X143252010Y-130807128D02*
X143299629Y-130854747D01*
X143299629Y-130854747D02*
X143394867Y-130902366D01*
X143394867Y-130902366D02*
X143585343Y-130902366D01*
X143585343Y-130902366D02*
X143680581Y-130854747D01*
X143680581Y-130854747D02*
X143728200Y-130807128D01*
X143728200Y-130807128D02*
X143775819Y-130711890D01*
X142132962Y-128915694D02*
X141799629Y-128439503D01*
X141561534Y-128915694D02*
X141561534Y-127915694D01*
X141561534Y-127915694D02*
X141942486Y-127915694D01*
X141942486Y-127915694D02*
X142037724Y-127963313D01*
X142037724Y-127963313D02*
X142085343Y-128010932D01*
X142085343Y-128010932D02*
X142132962Y-128106170D01*
X142132962Y-128106170D02*
X142132962Y-128249027D01*
X142132962Y-128249027D02*
X142085343Y-128344265D01*
X142085343Y-128344265D02*
X142037724Y-128391884D01*
X142037724Y-128391884D02*
X141942486Y-128439503D01*
X141942486Y-128439503D02*
X141561534Y-128439503D01*
X142704391Y-128344265D02*
X142609153Y-128296646D01*
X142609153Y-128296646D02*
X142561534Y-128249027D01*
X142561534Y-128249027D02*
X142513915Y-128153789D01*
X142513915Y-128153789D02*
X142513915Y-128106170D01*
X142513915Y-128106170D02*
X142561534Y-128010932D01*
X142561534Y-128010932D02*
X142609153Y-127963313D01*
X142609153Y-127963313D02*
X142704391Y-127915694D01*
X142704391Y-127915694D02*
X142894867Y-127915694D01*
X142894867Y-127915694D02*
X142990105Y-127963313D01*
X142990105Y-127963313D02*
X143037724Y-128010932D01*
X143037724Y-128010932D02*
X143085343Y-128106170D01*
X143085343Y-128106170D02*
X143085343Y-128153789D01*
X143085343Y-128153789D02*
X143037724Y-128249027D01*
X143037724Y-128249027D02*
X142990105Y-128296646D01*
X142990105Y-128296646D02*
X142894867Y-128344265D01*
X142894867Y-128344265D02*
X142704391Y-128344265D01*
X142704391Y-128344265D02*
X142609153Y-128391884D01*
X142609153Y-128391884D02*
X142561534Y-128439503D01*
X142561534Y-128439503D02*
X142513915Y-128534741D01*
X142513915Y-128534741D02*
X142513915Y-128725217D01*
X142513915Y-128725217D02*
X142561534Y-128820455D01*
X142561534Y-128820455D02*
X142609153Y-128868075D01*
X142609153Y-128868075D02*
X142704391Y-128915694D01*
X142704391Y-128915694D02*
X142894867Y-128915694D01*
X142894867Y-128915694D02*
X142990105Y-128868075D01*
X142990105Y-128868075D02*
X143037724Y-128820455D01*
X143037724Y-128820455D02*
X143085343Y-128725217D01*
X143085343Y-128725217D02*
X143085343Y-128534741D01*
X143085343Y-128534741D02*
X143037724Y-128439503D01*
X143037724Y-128439503D02*
X142990105Y-128391884D01*
X142990105Y-128391884D02*
X142894867Y-128344265D01*
X140870581Y-123296079D02*
X141061057Y-123296079D01*
X141061057Y-123296079D02*
X141156295Y-123248460D01*
X141156295Y-123248460D02*
X141203914Y-123200840D01*
X141203914Y-123200840D02*
X141299152Y-123057983D01*
X141299152Y-123057983D02*
X141346771Y-122867507D01*
X141346771Y-122867507D02*
X141346771Y-122486555D01*
X141346771Y-122486555D02*
X141299152Y-122391317D01*
X141299152Y-122391317D02*
X141251533Y-122343698D01*
X141251533Y-122343698D02*
X141156295Y-122296079D01*
X141156295Y-122296079D02*
X140965819Y-122296079D01*
X140965819Y-122296079D02*
X140870581Y-122343698D01*
X140870581Y-122343698D02*
X140822962Y-122391317D01*
X140822962Y-122391317D02*
X140775343Y-122486555D01*
X140775343Y-122486555D02*
X140775343Y-122724650D01*
X140775343Y-122724650D02*
X140822962Y-122819888D01*
X140822962Y-122819888D02*
X140870581Y-122867507D01*
X140870581Y-122867507D02*
X140965819Y-122915126D01*
X140965819Y-122915126D02*
X141156295Y-122915126D01*
X141156295Y-122915126D02*
X141251533Y-122867507D01*
X141251533Y-122867507D02*
X141299152Y-122819888D01*
X141299152Y-122819888D02*
X141346771Y-122724650D01*
X141775343Y-123200840D02*
X141822962Y-123248460D01*
X141822962Y-123248460D02*
X141775343Y-123296079D01*
X141775343Y-123296079D02*
X141727724Y-123248460D01*
X141727724Y-123248460D02*
X141775343Y-123200840D01*
X141775343Y-123200840D02*
X141775343Y-123296079D01*
X142442009Y-122296079D02*
X142537247Y-122296079D01*
X142537247Y-122296079D02*
X142632485Y-122343698D01*
X142632485Y-122343698D02*
X142680104Y-122391317D01*
X142680104Y-122391317D02*
X142727723Y-122486555D01*
X142727723Y-122486555D02*
X142775342Y-122677031D01*
X142775342Y-122677031D02*
X142775342Y-122915126D01*
X142775342Y-122915126D02*
X142727723Y-123105602D01*
X142727723Y-123105602D02*
X142680104Y-123200840D01*
X142680104Y-123200840D02*
X142632485Y-123248460D01*
X142632485Y-123248460D02*
X142537247Y-123296079D01*
X142537247Y-123296079D02*
X142442009Y-123296079D01*
X142442009Y-123296079D02*
X142346771Y-123248460D01*
X142346771Y-123248460D02*
X142299152Y-123200840D01*
X142299152Y-123200840D02*
X142251533Y-123105602D01*
X142251533Y-123105602D02*
X142203914Y-122915126D01*
X142203914Y-122915126D02*
X142203914Y-122677031D01*
X142203914Y-122677031D02*
X142251533Y-122486555D01*
X142251533Y-122486555D02*
X142299152Y-122391317D01*
X142299152Y-122391317D02*
X142346771Y-122343698D01*
X142346771Y-122343698D02*
X142442009Y-122296079D01*
X143251533Y-123296079D02*
X143442009Y-123296079D01*
X143442009Y-123296079D02*
X143537247Y-123248460D01*
X143537247Y-123248460D02*
X143584866Y-123200840D01*
X143584866Y-123200840D02*
X143680104Y-123057983D01*
X143680104Y-123057983D02*
X143727723Y-122867507D01*
X143727723Y-122867507D02*
X143727723Y-122486555D01*
X143727723Y-122486555D02*
X143680104Y-122391317D01*
X143680104Y-122391317D02*
X143632485Y-122343698D01*
X143632485Y-122343698D02*
X143537247Y-122296079D01*
X143537247Y-122296079D02*
X143346771Y-122296079D01*
X143346771Y-122296079D02*
X143251533Y-122343698D01*
X143251533Y-122343698D02*
X143203914Y-122391317D01*
X143203914Y-122391317D02*
X143156295Y-122486555D01*
X143156295Y-122486555D02*
X143156295Y-122724650D01*
X143156295Y-122724650D02*
X143203914Y-122819888D01*
X143203914Y-122819888D02*
X143251533Y-122867507D01*
X143251533Y-122867507D02*
X143346771Y-122915126D01*
X143346771Y-122915126D02*
X143537247Y-122915126D01*
X143537247Y-122915126D02*
X143632485Y-122867507D01*
X143632485Y-122867507D02*
X143680104Y-122819888D01*
X143680104Y-122819888D02*
X143727723Y-122724650D01*
X109699092Y-118638480D02*
X109699092Y-117638480D01*
X109699092Y-117638480D02*
X109937187Y-117638480D01*
X109937187Y-117638480D02*
X110080044Y-117686099D01*
X110080044Y-117686099D02*
X110175282Y-117781337D01*
X110175282Y-117781337D02*
X110222901Y-117876575D01*
X110222901Y-117876575D02*
X110270520Y-118067051D01*
X110270520Y-118067051D02*
X110270520Y-118209908D01*
X110270520Y-118209908D02*
X110222901Y-118400384D01*
X110222901Y-118400384D02*
X110175282Y-118495622D01*
X110175282Y-118495622D02*
X110080044Y-118590861D01*
X110080044Y-118590861D02*
X109937187Y-118638480D01*
X109937187Y-118638480D02*
X109699092Y-118638480D01*
X110651473Y-117733718D02*
X110699092Y-117686099D01*
X110699092Y-117686099D02*
X110794330Y-117638480D01*
X110794330Y-117638480D02*
X111032425Y-117638480D01*
X111032425Y-117638480D02*
X111127663Y-117686099D01*
X111127663Y-117686099D02*
X111175282Y-117733718D01*
X111175282Y-117733718D02*
X111222901Y-117828956D01*
X111222901Y-117828956D02*
X111222901Y-117924194D01*
X111222901Y-117924194D02*
X111175282Y-118067051D01*
X111175282Y-118067051D02*
X110603854Y-118638480D01*
X110603854Y-118638480D02*
X111222901Y-118638480D01*
X138885296Y-135051011D02*
X138790058Y-135003392D01*
X138790058Y-135003392D02*
X138694820Y-134908154D01*
X138694820Y-134908154D02*
X138551963Y-134765296D01*
X138551963Y-134765296D02*
X138456725Y-134717677D01*
X138456725Y-134717677D02*
X138361487Y-134717677D01*
X138409106Y-134955773D02*
X138313868Y-134908154D01*
X138313868Y-134908154D02*
X138218630Y-134812915D01*
X138218630Y-134812915D02*
X138171011Y-134622439D01*
X138171011Y-134622439D02*
X138171011Y-134289106D01*
X138171011Y-134289106D02*
X138218630Y-134098630D01*
X138218630Y-134098630D02*
X138313868Y-134003392D01*
X138313868Y-134003392D02*
X138409106Y-133955773D01*
X138409106Y-133955773D02*
X138599582Y-133955773D01*
X138599582Y-133955773D02*
X138694820Y-134003392D01*
X138694820Y-134003392D02*
X138790058Y-134098630D01*
X138790058Y-134098630D02*
X138837677Y-134289106D01*
X138837677Y-134289106D02*
X138837677Y-134622439D01*
X138837677Y-134622439D02*
X138790058Y-134812915D01*
X138790058Y-134812915D02*
X138694820Y-134908154D01*
X138694820Y-134908154D02*
X138599582Y-134955773D01*
X138599582Y-134955773D02*
X138409106Y-134955773D01*
X139790058Y-134955773D02*
X139218630Y-134955773D01*
X139504344Y-134955773D02*
X139504344Y-133955773D01*
X139504344Y-133955773D02*
X139409106Y-134098630D01*
X139409106Y-134098630D02*
X139313868Y-134193868D01*
X139313868Y-134193868D02*
X139218630Y-134241487D01*
D13*
X106930000Y-146600000D02*
X107955000Y-146600000D01*
X106930000Y-147710000D02*
X106930000Y-146600000D01*
X107955000Y-146600000D02*
X107955000Y-146060000D01*
X110110000Y-142090000D02*
X110935000Y-142090000D01*
X110935000Y-142090000D02*
X110935000Y-140290000D01*
X139065000Y-142090000D02*
X139890000Y-142090000D01*
X142045000Y-146060000D02*
X142045000Y-146600000D01*
X142045000Y-146600000D02*
X143070000Y-146600000D01*
X143070000Y-146600000D02*
X143070000Y-147710000D01*
X143070000Y-147710000D02*
X106930000Y-147710000D01*
D14*
X137999976Y-114080000D02*
X140999976Y-114080000D01*
X140999976Y-117120000D02*
X137999976Y-117120000D01*
D11*
X141834976Y-115600000D02*
G75*
G02*
X141634976Y-115600000I-100000J0D01*
G01*
X141634976Y-115600000D02*
G75*
G02*
X141834976Y-115600000I100000J0D01*
G01*
X118000000Y-130100000D02*
X118700000Y-130100000D01*
X118000000Y-132500000D02*
X118000000Y-130100000D01*
X118850000Y-133900000D02*
X131150000Y-133900000D01*
X131300000Y-130100000D02*
X132000000Y-130100000D01*
X132000000Y-130100000D02*
X132000000Y-132500000D01*
X119350000Y-129600000D02*
G75*
G02*
X119150000Y-129600000I-100000J0D01*
G01*
X119150000Y-129600000D02*
G75*
G02*
X119350000Y-129600000I100000J0D01*
G01*
D13*
X138275459Y-125214587D02*
X139045459Y-125214587D01*
X146355459Y-125214587D02*
X145585459Y-125214587D01*
X139045459Y-123844587D02*
X145585459Y-123844587D01*
X145585459Y-126584587D01*
X139045459Y-126584587D01*
X139045459Y-123844587D01*
X138259629Y-128463475D02*
X139029629Y-128463475D01*
X146339629Y-128463475D02*
X145569629Y-128463475D01*
X139029629Y-127093475D02*
X145569629Y-127093475D01*
X145569629Y-129833475D01*
X139029629Y-129833475D01*
X139029629Y-127093475D01*
D14*
X108999976Y-114080000D02*
X111999976Y-114080000D01*
X111999976Y-117120000D02*
X108999976Y-117120000D01*
D11*
X108364976Y-115600000D02*
G75*
G02*
X108164976Y-115600000I-100000J0D01*
G01*
X108164976Y-115600000D02*
G75*
G02*
X108364976Y-115600000I100000J0D01*
G01*
D13*
X140395271Y-133770309D02*
X141395271Y-133770309D01*
X140395271Y-135290309D02*
X140395271Y-133770309D01*
X140445271Y-135290309D02*
X140395271Y-135290309D01*
X142345271Y-135290309D02*
X141565271Y-135290309D01*
X142515271Y-133770309D02*
X143515271Y-133770309D01*
X143515271Y-133770309D02*
X143515271Y-135290309D01*
X143515271Y-135290309D02*
X143465271Y-135290309D01*
X141905271Y-136070309D02*
X141575271Y-135830309D01*
X141905271Y-135590309D01*
X141905271Y-136070309D01*
G36*
X141905271Y-136070309D02*
G01*
X141575271Y-135830309D01*
X141905271Y-135590309D01*
X141905271Y-136070309D01*
G37*
%LPC*%
D15*
X138899976Y-116900000D02*
X138099976Y-116900000D01*
X138099976Y-115950000D01*
X137799976Y-115950000D01*
X137799976Y-115250000D01*
X138099976Y-115250000D01*
X138099976Y-114300000D01*
X138899976Y-114300000D01*
X138899976Y-116900000D01*
G36*
X138899976Y-116900000D02*
G01*
X138099976Y-116900000D01*
X138099976Y-115950000D01*
X137799976Y-115950000D01*
X137799976Y-115250000D01*
X138099976Y-115250000D01*
X138099976Y-114300000D01*
X138899976Y-114300000D01*
X138899976Y-116900000D01*
G37*
X111899976Y-115250000D02*
X112199976Y-115250000D01*
X112199976Y-115950000D01*
X111899976Y-115950000D01*
X111899976Y-116900000D01*
X111099976Y-116900000D01*
X111099976Y-114300000D01*
X111899976Y-114300000D01*
X111899976Y-115250000D01*
G36*
X111899976Y-115250000D02*
G01*
X112199976Y-115250000D01*
X112199976Y-115950000D01*
X111899976Y-115950000D01*
X111899976Y-116900000D01*
X111099976Y-116900000D01*
X111099976Y-114300000D01*
X111899976Y-114300000D01*
X111899976Y-115250000D01*
G37*
D16*
X111500000Y-141200000D03*
X112500000Y-141200000D03*
X113500000Y-141200000D03*
X114500000Y-141200000D03*
X115500000Y-141200000D03*
X116500000Y-141200000D03*
X117500000Y-141200000D03*
X118500000Y-141200000D03*
X119500000Y-141200000D03*
X120500000Y-141200000D03*
X121500000Y-141200000D03*
X122500000Y-141200000D03*
X123500000Y-141200000D03*
X124500000Y-141200000D03*
X125500000Y-141200000D03*
X126500000Y-141200000D03*
X127500000Y-141200000D03*
X128500000Y-141200000D03*
X129500000Y-141200000D03*
X130500000Y-141200000D03*
X131500000Y-141200000D03*
X132500000Y-141200000D03*
X133500000Y-141200000D03*
X134500000Y-141200000D03*
X135500000Y-141200000D03*
X136500000Y-141200000D03*
X137500000Y-141200000D03*
X138500000Y-141200000D03*
D17*
X108510000Y-144000000D03*
X141490000Y-144000000D03*
D18*
X140299976Y-115600000D03*
D19*
X119250000Y-130750000D03*
X119750000Y-130750000D03*
X120250000Y-130750000D03*
X120750000Y-130750000D03*
X121250000Y-130750000D03*
X121750000Y-130750000D03*
X122250000Y-130750000D03*
X122750000Y-130750000D03*
X123250000Y-130750000D03*
X123750000Y-130750000D03*
X124250000Y-130750000D03*
X124750000Y-130750000D03*
X125250000Y-130750000D03*
X125750000Y-130750000D03*
X126250000Y-130750000D03*
X126750000Y-130750000D03*
X127250000Y-130750000D03*
X127750000Y-130750000D03*
X128250000Y-130750000D03*
X128750000Y-130750000D03*
X129250000Y-130750000D03*
X129750000Y-130750000D03*
X130250000Y-130750000D03*
X130750000Y-130750000D03*
D20*
X118300000Y-133250000D03*
X131700000Y-133250000D03*
D21*
X137235459Y-125214587D03*
X147395459Y-125214587D03*
X137219629Y-128463475D03*
X147379629Y-128463475D03*
D22*
X109699976Y-115600000D03*
D23*
X141005271Y-135467809D03*
X142905271Y-135467809D03*
X141955271Y-133592809D03*
%LPD*%
M02*
