G04 #@! TF.GenerationSoftware,KiCad,Pcbnew,9.0.5*
G04 #@! TF.CreationDate,2025-11-14T17:50:21-08:00*
G04 #@! TF.ProjectId,ZB_Camera_01,5a425f43-616d-4657-9261-5f30312e6b69,rev?*
G04 #@! TF.SameCoordinates,Original*
G04 #@! TF.FileFunction,Soldermask,Top*
G04 #@! TF.FilePolarity,Negative*
%FSLAX46Y46*%
G04 Gerber Fmt 4.6, Leading zero omitted, Abs format (unit mm)*
G04 Created by KiCad (PCBNEW 9.0.5) date 2025-11-14 17:50:21*
%MOMM*%
%LPD*%
G01*
G04 APERTURE LIST*
G04 Aperture macros list*
%AMRoundRect*
0 Rectangle with rounded corners*
0 $1 Rounding radius*
0 $2 $3 $4 $5 $6 $7 $8 $9 X,Y pos of 4 corners*
0 Add a 4 corners polygon primitive as box body*
4,1,4,$2,$3,$4,$5,$6,$7,$8,$9,$2,$3,0*
0 Add four circle primitives for the rounded corners*
1,1,$1+$1,$2,$3*
1,1,$1+$1,$4,$5*
1,1,$1+$1,$6,$7*
1,1,$1+$1,$8,$9*
0 Add four rect primitives between the rounded corners*
20,1,$1+$1,$2,$3,$4,$5,0*
20,1,$1+$1,$4,$5,$6,$7,0*
20,1,$1+$1,$6,$7,$8,$9,0*
20,1,$1+$1,$8,$9,$2,$3,0*%
G04 Aperture macros list end*
%ADD10C,0.010000*%
%ADD11R,0.610000X2.000000*%
%ADD12R,2.680000X3.600000*%
%ADD13RoundRect,0.102000X0.800000X1.200000X-0.800000X1.200000X-0.800000X-1.200000X0.800000X-1.200000X0*%
%ADD14RoundRect,0.102000X-0.150000X-0.400000X0.150000X-0.400000X0.150000X0.400000X-0.150000X0.400000X0*%
%ADD15RoundRect,0.102000X-0.200000X-0.400000X0.200000X-0.400000X0.200000X0.400000X-0.200000X0.400000X0*%
%ADD16C,1.600000*%
%ADD17RoundRect,0.102000X-0.800000X-1.200000X0.800000X-1.200000X0.800000X1.200000X-0.800000X1.200000X0*%
%ADD18RoundRect,0.150000X0.150000X-0.587500X0.150000X0.587500X-0.150000X0.587500X-0.150000X-0.587500X0*%
G04 APERTURE END LIST*
D10*
X138899976Y-116900000D02*
X138099976Y-116900000D01*
X138099976Y-115950000D01*
X137799976Y-115950000D01*
X137799976Y-115250000D01*
X138099976Y-115250000D01*
X138099976Y-114300000D01*
X138899976Y-114300000D01*
X138899976Y-116900000D01*
G36*
X138899976Y-116900000D02*
G01*
X138099976Y-116900000D01*
X138099976Y-115950000D01*
X137799976Y-115950000D01*
X137799976Y-115250000D01*
X138099976Y-115250000D01*
X138099976Y-114300000D01*
X138899976Y-114300000D01*
X138899976Y-116900000D01*
G37*
X111899976Y-115250000D02*
X112199976Y-115250000D01*
X112199976Y-115950000D01*
X111899976Y-115950000D01*
X111899976Y-116900000D01*
X111099976Y-116900000D01*
X111099976Y-114300000D01*
X111899976Y-114300000D01*
X111899976Y-115250000D01*
G36*
X111899976Y-115250000D02*
G01*
X112199976Y-115250000D01*
X112199976Y-115950000D01*
X111899976Y-115950000D01*
X111899976Y-116900000D01*
X111099976Y-116900000D01*
X111099976Y-114300000D01*
X111899976Y-114300000D01*
X111899976Y-115250000D01*
G37*
D11*
X111500000Y-141200000D03*
X112500000Y-141200000D03*
X113500000Y-141200000D03*
X114500000Y-141200000D03*
X115500000Y-141200000D03*
X116500000Y-141200000D03*
X117500000Y-141200000D03*
X118500000Y-141200000D03*
X119500000Y-141200000D03*
X120500000Y-141200000D03*
X121500000Y-141200000D03*
X122500000Y-141200000D03*
X123500000Y-141200000D03*
X124500000Y-141200000D03*
X125500000Y-141200000D03*
X126500000Y-141200000D03*
X127500000Y-141200000D03*
X128500000Y-141200000D03*
X129500000Y-141200000D03*
X130500000Y-141200000D03*
X131500000Y-141200000D03*
X132500000Y-141200000D03*
X133500000Y-141200000D03*
X134500000Y-141200000D03*
X135500000Y-141200000D03*
X136500000Y-141200000D03*
X137500000Y-141200000D03*
X138500000Y-141200000D03*
D12*
X108510000Y-144000000D03*
X141490000Y-144000000D03*
D13*
X140299976Y-115600000D03*
D14*
X119250000Y-130750000D03*
X119750000Y-130750000D03*
X120250000Y-130750000D03*
X120750000Y-130750000D03*
X121250000Y-130750000D03*
X121750000Y-130750000D03*
X122250000Y-130750000D03*
X122750000Y-130750000D03*
X123250000Y-130750000D03*
X123750000Y-130750000D03*
X124250000Y-130750000D03*
X124750000Y-130750000D03*
X125250000Y-130750000D03*
X125750000Y-130750000D03*
X126250000Y-130750000D03*
X126750000Y-130750000D03*
X127250000Y-130750000D03*
X127750000Y-130750000D03*
X128250000Y-130750000D03*
X128750000Y-130750000D03*
X129250000Y-130750000D03*
X129750000Y-130750000D03*
X130250000Y-130750000D03*
X130750000Y-130750000D03*
D15*
X118300000Y-133250000D03*
X131700000Y-133250000D03*
D16*
X137235459Y-125214587D03*
X147395459Y-125214587D03*
X137219629Y-128463475D03*
X147379629Y-128463475D03*
D17*
X109699976Y-115600000D03*
D18*
X141005271Y-135467809D03*
X142905271Y-135467809D03*
X141955271Y-133592809D03*
M02*
