G04 #@! TF.GenerationSoftware,KiCad,Pcbnew,9.0.5*
G04 #@! TF.CreationDate,2025-11-14T17:50:21-08:00*
G04 #@! TF.ProjectId,ZB_Camera_01,5a425f43-616d-4657-9261-5f30312e6b69,rev?*
G04 #@! TF.SameCoordinates,Original*
G04 #@! TF.FileFunction,Copper,L1,Top*
G04 #@! TF.FilePolarity,Positive*
%FSLAX46Y46*%
G04 Gerber Fmt 4.6, Leading zero omitted, Abs format (unit mm)*
G04 Created by KiCad (PCBNEW 9.0.5) date 2025-11-14 17:50:21*
%MOMM*%
%LPD*%
G01*
G04 APERTURE LIST*
G04 Aperture macros list*
%AMRoundRect*
0 Rectangle with rounded corners*
0 $1 Rounding radius*
0 $2 $3 $4 $5 $6 $7 $8 $9 X,Y pos of 4 corners*
0 Add a 4 corners polygon primitive as box body*
4,1,4,$2,$3,$4,$5,$6,$7,$8,$9,$2,$3,0*
0 Add four circle primitives for the rounded corners*
1,1,$1+$1,$2,$3*
1,1,$1+$1,$4,$5*
1,1,$1+$1,$6,$7*
1,1,$1+$1,$8,$9*
0 Add four rect primitives between the rounded corners*
20,1,$1+$1,$2,$3,$4,$5,0*
20,1,$1+$1,$4,$5,$6,$7,0*
20,1,$1+$1,$6,$7,$8,$9,0*
20,1,$1+$1,$8,$9,$2,$3,0*%
%AMFreePoly0*
4,1,21,0.303536,1.203536,0.305000,1.200000,0.305000,0.255000,0.600000,0.255000,0.603536,0.253536,0.605000,0.250000,0.605000,-0.250000,0.603536,-0.253536,0.600000,-0.255000,0.305000,-0.255000,0.305000,-1.200000,0.303536,-1.203536,0.300000,-1.205000,-0.300000,-1.205000,-0.303536,-1.203536,-0.305000,-1.200000,-0.305000,1.200000,-0.303536,1.203536,-0.300000,1.205000,0.300000,1.205000,
0.303536,1.203536,0.303536,1.203536,$1*%
G04 Aperture macros list end*
G04 #@! TA.AperFunction,SMDPad,CuDef*
%ADD10R,0.610000X2.000000*%
G04 #@! TD*
G04 #@! TA.AperFunction,SMDPad,CuDef*
%ADD11R,2.680000X3.600000*%
G04 #@! TD*
G04 #@! TA.AperFunction,SMDPad,CuDef*
%ADD12FreePoly0,180.000000*%
G04 #@! TD*
G04 #@! TA.AperFunction,SMDPad,CuDef*
%ADD13R,1.600000X2.400000*%
G04 #@! TD*
G04 #@! TA.AperFunction,SMDPad,CuDef*
%ADD14R,0.300000X0.800000*%
G04 #@! TD*
G04 #@! TA.AperFunction,SMDPad,CuDef*
%ADD15R,0.400000X0.800000*%
G04 #@! TD*
G04 #@! TA.AperFunction,ComponentPad*
%ADD16C,1.600000*%
G04 #@! TD*
G04 #@! TA.AperFunction,SMDPad,CuDef*
%ADD17FreePoly0,0.000000*%
G04 #@! TD*
G04 #@! TA.AperFunction,SMDPad,CuDef*
%ADD18RoundRect,0.150000X0.150000X-0.587500X0.150000X0.587500X-0.150000X0.587500X-0.150000X-0.587500X0*%
G04 #@! TD*
G04 #@! TA.AperFunction,ViaPad*
%ADD19C,1.000000*%
G04 #@! TD*
G04 #@! TA.AperFunction,Conductor*
%ADD20C,0.250000*%
G04 #@! TD*
G04 #@! TA.AperFunction,Conductor*
%ADD21C,1.000000*%
G04 #@! TD*
G04 #@! TA.AperFunction,Conductor*
%ADD22C,0.500000*%
G04 #@! TD*
G04 APERTURE END LIST*
D10*
X111500000Y-141200000D03*
X112500000Y-141200000D03*
X113500000Y-141200000D03*
X114500000Y-141200000D03*
X115500000Y-141200000D03*
X116500000Y-141200000D03*
X117500000Y-141200000D03*
X118500000Y-141200000D03*
X119500000Y-141200000D03*
X120500000Y-141200000D03*
X121500000Y-141200000D03*
X122500000Y-141200000D03*
X123500000Y-141200000D03*
X124500000Y-141200000D03*
X125500000Y-141200000D03*
X126500000Y-141200000D03*
X127500000Y-141200000D03*
X128500000Y-141200000D03*
X129500000Y-141200000D03*
X130500000Y-141200000D03*
X131500000Y-141200000D03*
X132500000Y-141200000D03*
X133500000Y-141200000D03*
X134500000Y-141200000D03*
X135500000Y-141200000D03*
X136500000Y-141200000D03*
X137500000Y-141200000D03*
X138500000Y-141200000D03*
D11*
X108510000Y-144000000D03*
X141490000Y-144000000D03*
D12*
X138499976Y-115600000D03*
D13*
X140299976Y-115600000D03*
D14*
X119250000Y-130750000D03*
X119750000Y-130750000D03*
X120250000Y-130750000D03*
X120750000Y-130750000D03*
X121250000Y-130750000D03*
X121750000Y-130750000D03*
X122250000Y-130750000D03*
X122750000Y-130750000D03*
X123250000Y-130750000D03*
X123750000Y-130750000D03*
X124250000Y-130750000D03*
X124750000Y-130750000D03*
X125250000Y-130750000D03*
X125750000Y-130750000D03*
X126250000Y-130750000D03*
X126750000Y-130750000D03*
X127250000Y-130750000D03*
X127750000Y-130750000D03*
X128250000Y-130750000D03*
X128750000Y-130750000D03*
X129250000Y-130750000D03*
X129750000Y-130750000D03*
X130250000Y-130750000D03*
X130750000Y-130750000D03*
D15*
X118300000Y-133250000D03*
X131700000Y-133250000D03*
D16*
X137235459Y-125214587D03*
X147395459Y-125214587D03*
X137219629Y-128463475D03*
X147379629Y-128463475D03*
D17*
X111499976Y-115600000D03*
D13*
X109699976Y-115600000D03*
D18*
X141005271Y-135467809D03*
X142905271Y-135467809D03*
X141955271Y-133592809D03*
D19*
X142535394Y-117838268D03*
X133022009Y-132543143D03*
X107431835Y-117840821D03*
X139947804Y-140715754D03*
X109783443Y-140631799D03*
X116968777Y-132509356D03*
D20*
X131700000Y-129884002D02*
X131313438Y-129497440D01*
X122364036Y-129497440D02*
X122750000Y-129883404D01*
X118300000Y-131004534D02*
X118554534Y-130750000D01*
X118554534Y-130750000D02*
X119250000Y-130750000D01*
X119250000Y-130750000D02*
X119750000Y-130750000D01*
D21*
X109699976Y-115600000D02*
X109672656Y-115600000D01*
D22*
X111500000Y-141200000D02*
X111500000Y-143325329D01*
X119272669Y-143864828D02*
X117727331Y-143864828D01*
D20*
X131700000Y-133250000D02*
X131700000Y-129884002D01*
X126250000Y-130750000D02*
X126250000Y-129968954D01*
D21*
X140299976Y-115600000D02*
X140299976Y-115602850D01*
D20*
X118300000Y-133250000D02*
X118300000Y-131004534D01*
D22*
X138500000Y-141200000D02*
X138500000Y-143314010D01*
X125500000Y-143091000D02*
X125500000Y-141200000D01*
D21*
X109672656Y-115600000D02*
X107431835Y-117840821D01*
D20*
X116968777Y-132509356D02*
X117709421Y-133250000D01*
D22*
X124724719Y-143864828D02*
X125498547Y-143091000D01*
X112500000Y-141200000D02*
X111500000Y-141200000D01*
D20*
X125778486Y-129497440D02*
X123135964Y-129497440D01*
X126250000Y-129968954D02*
X126721514Y-129497440D01*
X119250000Y-130030115D02*
X119782675Y-129497440D01*
D22*
X119272669Y-143864828D02*
X124724719Y-143864828D01*
X139463558Y-141200000D02*
X139947804Y-140715754D01*
D20*
X126250000Y-129968954D02*
X125778486Y-129497440D01*
X126721514Y-129497440D02*
X125778486Y-129497440D01*
X133022009Y-132543143D02*
X132315152Y-133250000D01*
D22*
X118500000Y-143092159D02*
X118500000Y-141200000D01*
D20*
X117709421Y-133250000D02*
X118300000Y-133250000D01*
X119250000Y-130750000D02*
X119250000Y-130030115D01*
D22*
X110351644Y-141200000D02*
X109783443Y-140631799D01*
X125498547Y-143091000D02*
X126272375Y-143864828D01*
X138500000Y-143314010D02*
X137949182Y-143864828D01*
X126272375Y-143864828D02*
X124724719Y-143864828D01*
X137500000Y-141200000D02*
X138500000Y-141200000D01*
D20*
X132315152Y-133250000D02*
X131700000Y-133250000D01*
X123135964Y-129497440D02*
X122364036Y-129497440D01*
X119782675Y-129497440D02*
X122364036Y-129497440D01*
D22*
X117727331Y-143864828D02*
X118500000Y-143092159D01*
X138500000Y-141200000D02*
X139463558Y-141200000D01*
X137949182Y-143864828D02*
X126272375Y-143864828D01*
X111500000Y-141200000D02*
X110351644Y-141200000D01*
X125498547Y-143091000D02*
X125500000Y-143091000D01*
X119272669Y-143864828D02*
X118500000Y-143092159D01*
D20*
X131313438Y-129497440D02*
X126721514Y-129497440D01*
X122750000Y-129883404D02*
X122750000Y-130750000D01*
D22*
X111500000Y-143325329D02*
X112039499Y-143864828D01*
D20*
X122750000Y-129883404D02*
X123135964Y-129497440D01*
D21*
X140299976Y-115602850D02*
X142535394Y-117838268D01*
D22*
X112039499Y-143864828D02*
X117727331Y-143864828D01*
D21*
X134294668Y-124580373D02*
X134294668Y-116220667D01*
X134294668Y-116220667D02*
X134915335Y-115600000D01*
X137235459Y-125214587D02*
X134928882Y-125214587D01*
X134928882Y-125214587D02*
X134294668Y-124580373D01*
D22*
X138499976Y-115600000D02*
X136583015Y-115600000D01*
D21*
X134915335Y-115600000D02*
X136583015Y-115600000D01*
X117328444Y-127091784D02*
X116376773Y-126140113D01*
X116376773Y-126140113D02*
X116376773Y-116663551D01*
D22*
X111499976Y-115600000D02*
X114256716Y-115600000D01*
D21*
X133054187Y-127091784D02*
X117328444Y-127091784D01*
X115313222Y-115600000D02*
X114256716Y-115600000D01*
X116376773Y-116663551D02*
X115313222Y-115600000D01*
X137219629Y-128463475D02*
X134425878Y-128463475D01*
X134425878Y-128463475D02*
X133054187Y-127091784D01*
D22*
X141005271Y-136956162D02*
X141005271Y-135467809D01*
X140296577Y-137664856D02*
X141005271Y-136956162D01*
X137342478Y-137664856D02*
X140296577Y-137664856D01*
X135500000Y-141200000D02*
X135500000Y-139507334D01*
X135500000Y-139507334D02*
X137342478Y-137664856D01*
D20*
X123982561Y-137250701D02*
X123982561Y-137962799D01*
X124981891Y-133620997D02*
X124981891Y-136251371D01*
X124750000Y-130750000D02*
X124750000Y-133389106D01*
X124981891Y-136251371D02*
X123982561Y-137250701D01*
D22*
X122500000Y-141200000D02*
X122500000Y-139627829D01*
X122500000Y-139627829D02*
X123982561Y-138145268D01*
D20*
X124750000Y-133389106D02*
X124981891Y-133620997D01*
D22*
X123982561Y-138145268D02*
X123982561Y-137962799D01*
D20*
X123750000Y-132558017D02*
X123750000Y-130750000D01*
X120500000Y-138693058D02*
X123542521Y-135650537D01*
X123542521Y-135650537D02*
X123542521Y-132765496D01*
D22*
X120500000Y-139074725D02*
X120500000Y-141200000D01*
D20*
X120500000Y-139074725D02*
X120500000Y-138693058D01*
X123542521Y-132765496D02*
X123750000Y-132558017D01*
X126750000Y-137202533D02*
X126750000Y-130750000D01*
D22*
X126500000Y-141200000D02*
X126500000Y-138414322D01*
D20*
X126500000Y-138414322D02*
X126500000Y-137452533D01*
X126500000Y-137452533D02*
X126750000Y-137202533D01*
D22*
X114196620Y-134405733D02*
X113500000Y-135102353D01*
X113500000Y-135102353D02*
X113500000Y-141200000D01*
X115135601Y-134405733D02*
X114196620Y-134405733D01*
D20*
X119295886Y-132434314D02*
X120250000Y-131480200D01*
X115135601Y-134405733D02*
X118947348Y-134405733D01*
X118947348Y-134405733D02*
X119295886Y-134057195D01*
X119295886Y-134057195D02*
X119295886Y-132434314D01*
X120250000Y-131480200D02*
X120250000Y-130750000D01*
X124817600Y-137368092D02*
X124817600Y-138195158D01*
X125619063Y-133392269D02*
X125619063Y-136566629D01*
X125250000Y-133023206D02*
X125619063Y-133392269D01*
D22*
X123500000Y-141200000D02*
X123500000Y-139840451D01*
X123500000Y-139840451D02*
X124817600Y-138522851D01*
X124817600Y-138522851D02*
X124817600Y-138195158D01*
D20*
X125250000Y-130750000D02*
X125250000Y-133023206D01*
X125619063Y-136566629D02*
X124817600Y-137368092D01*
X128250000Y-136532899D02*
X128250000Y-130750000D01*
X129500000Y-138103958D02*
X129500000Y-137782899D01*
X129500000Y-137782899D02*
X128250000Y-136532899D01*
D22*
X129500000Y-141200000D02*
X129500000Y-138103958D01*
D20*
X119782228Y-137691587D02*
X120607434Y-137691587D01*
X122870602Y-132506164D02*
X123250000Y-132126766D01*
X120607434Y-137691587D02*
X122870602Y-135428419D01*
X123250000Y-132126766D02*
X123250000Y-130750000D01*
X119500000Y-137973815D02*
X119782228Y-137691587D01*
X122870602Y-135428419D02*
X122870602Y-132506164D01*
D22*
X119500000Y-138441912D02*
X119500000Y-141200000D01*
D20*
X119500000Y-138441912D02*
X119500000Y-137973815D01*
X120698208Y-134752837D02*
X120698208Y-133025195D01*
D22*
X115500000Y-137068564D02*
X115500000Y-141200000D01*
D20*
X116191889Y-136376675D02*
X116914378Y-135654186D01*
D22*
X116191889Y-136376675D02*
X115500000Y-137068564D01*
D20*
X120698208Y-133025195D02*
X121250000Y-132473403D01*
X116914378Y-135654186D02*
X119796859Y-135654186D01*
X119796859Y-135654186D02*
X120698208Y-134752837D01*
X121250000Y-132473403D02*
X121250000Y-130750000D01*
X124250000Y-135739401D02*
X124250000Y-130750000D01*
X123048502Y-137576072D02*
X123048502Y-136940899D01*
X123048502Y-136940899D02*
X124250000Y-135739401D01*
X122474685Y-138149889D02*
X123048502Y-137576072D01*
D22*
X122474685Y-138149889D02*
X121500000Y-139124574D01*
X121500000Y-139124574D02*
X121500000Y-141200000D01*
D20*
X130668514Y-136598176D02*
X131116893Y-137046556D01*
D22*
X131116894Y-137046556D02*
X131116893Y-137046556D01*
D20*
X130454611Y-136598176D02*
X130668514Y-136598176D01*
D22*
X131500000Y-137429662D02*
X131116894Y-137046556D01*
D20*
X129250000Y-135393565D02*
X130454611Y-136598176D01*
X129250000Y-130750000D02*
X129250000Y-135393565D01*
D22*
X131500000Y-141200000D02*
X131500000Y-137429662D01*
D20*
X126174546Y-136846080D02*
X125617544Y-137403082D01*
D22*
X124500000Y-141200000D02*
X124500000Y-140089482D01*
D20*
X125750000Y-130750000D02*
X125750000Y-132707129D01*
X125617544Y-137403082D02*
X125617544Y-138361560D01*
D22*
X125617544Y-138971938D02*
X125617544Y-138361560D01*
X124500000Y-140089482D02*
X125617544Y-138971938D01*
D20*
X126174546Y-133131675D02*
X126174546Y-136846080D01*
X125750000Y-132707129D02*
X126174546Y-133131675D01*
X130750000Y-134082870D02*
X130750000Y-130750000D01*
X132962151Y-134465195D02*
X131132325Y-134465195D01*
D22*
X133452282Y-134465195D02*
X134500000Y-135512913D01*
D20*
X131132325Y-134465195D02*
X130750000Y-134082870D01*
D22*
X132962151Y-134465195D02*
X133452282Y-134465195D01*
X134500000Y-135512913D02*
X134500000Y-141200000D01*
D20*
X131528059Y-135980973D02*
X130839455Y-135980973D01*
X130839455Y-135980973D02*
X129750000Y-134891518D01*
X129750000Y-134891518D02*
X129750000Y-130750000D01*
X132063573Y-136516488D02*
X131528059Y-135980973D01*
D22*
X132063573Y-136516488D02*
X132500000Y-136952914D01*
X132500000Y-136952914D02*
X132500000Y-141200000D01*
D20*
X121750000Y-132931884D02*
X121750000Y-130750000D01*
D22*
X117240228Y-137038352D02*
X116500000Y-137778580D01*
D20*
X117240228Y-137038352D02*
X117975425Y-136303155D01*
X117975425Y-136303155D02*
X120119824Y-136303155D01*
X121376223Y-135046756D02*
X121376223Y-133305661D01*
D22*
X116500000Y-137778580D02*
X116500000Y-141200000D01*
D20*
X121376223Y-133305661D02*
X121750000Y-132931884D01*
X120119824Y-136303155D02*
X121376223Y-135046756D01*
X130500000Y-137663765D02*
X130500000Y-137911225D01*
X128750000Y-130750000D02*
X128750000Y-135913765D01*
D22*
X130500000Y-141200000D02*
X130500000Y-137911225D01*
D20*
X128750000Y-135913765D02*
X130500000Y-137663765D01*
X127500000Y-138528781D02*
X127500000Y-138117614D01*
D22*
X127500000Y-141200000D02*
X127500000Y-138528781D01*
D20*
X127250000Y-137867614D02*
X127250000Y-130750000D01*
X127500000Y-138117614D02*
X127250000Y-137867614D01*
D22*
X114500000Y-136387366D02*
X114500000Y-141200000D01*
D20*
X119468423Y-135026566D02*
X115860800Y-135026566D01*
D22*
X115257614Y-135629752D02*
X114500000Y-136387366D01*
D20*
X115860800Y-135026566D02*
X115257614Y-135629752D01*
X120750000Y-131927789D02*
X120014746Y-132663043D01*
X120750000Y-130750000D02*
X120750000Y-131927789D01*
X120014746Y-134480243D02*
X119468423Y-135026566D01*
X120014746Y-132663043D02*
X120014746Y-134480243D01*
X132913137Y-135772214D02*
X132390329Y-135249406D01*
D22*
X133500000Y-136359077D02*
X133500000Y-141200000D01*
D20*
X130250000Y-134530459D02*
X130250000Y-130750000D01*
D22*
X133529740Y-141170260D02*
X133500000Y-141200000D01*
X132913137Y-135772214D02*
X133500000Y-136359077D01*
D20*
X132390329Y-135249406D02*
X130968947Y-135249406D01*
X130968947Y-135249406D02*
X130250000Y-134530459D01*
X127750000Y-136925077D02*
X128500000Y-137675077D01*
X128500000Y-137675077D02*
X128500000Y-138323032D01*
D22*
X128500000Y-141200000D02*
X128500000Y-138323032D01*
D20*
X127750000Y-130750000D02*
X127750000Y-136925077D01*
D22*
X118352249Y-137505644D02*
X117500000Y-138357893D01*
D20*
X122044870Y-135342034D02*
X122044870Y-133568878D01*
X122250000Y-133363748D02*
X122250000Y-130750000D01*
X118767503Y-137090390D02*
X120296514Y-137090390D01*
X120296514Y-137090390D02*
X122044870Y-135342034D01*
X122044870Y-133568878D02*
X122250000Y-133363748D01*
D22*
X117500000Y-138357893D02*
X117500000Y-141200000D01*
D20*
X118352249Y-137505644D02*
X118767503Y-137090390D01*
D22*
X141955271Y-132440030D02*
X142476399Y-131918902D01*
X147379629Y-128463475D02*
X147379629Y-125230417D01*
X142476399Y-131918902D02*
X146843909Y-131918902D01*
X146843909Y-131918902D02*
X147379629Y-131383182D01*
X147379629Y-131383182D02*
X147379629Y-128463475D01*
X141955271Y-133592809D02*
X141955271Y-132440030D01*
X147379629Y-125230417D02*
X147395459Y-125214587D01*
X136500000Y-141200000D02*
X136500000Y-139785788D01*
X137590721Y-138695067D02*
X141885336Y-138695067D01*
X142905271Y-137675132D02*
X142905271Y-135467809D01*
X141885336Y-138695067D02*
X142905271Y-137675132D01*
X136500000Y-139785788D02*
X137590721Y-138695067D01*
M02*
