%TF.GenerationSoftware,KiCad,Pcbnew,9.0.5*%
%TF.CreationDate,2025-11-14T17:50:36-08:00*%
%TF.ProjectId,ZB_Camera_01,5a425f43-616d-4657-9261-5f30312e6b69,rev?*%
%TF.SameCoordinates,Original*%
%TF.FileFunction,Drillmap*%
%TF.FilePolarity,Positive*%
%FSLAX45Y45*%
G04 Gerber Fmt 4.5, Leading zero omitted, Abs format (unit mm)*
G04 Created by KiCad (PCBNEW 9.0.5) date 2025-11-14 17:50:36*
%MOMM*%
%LPD*%
G01*
G04 APERTURE LIST*
%ADD10C,0.050000*%
%ADD11C,0.200000*%
%ADD12C,0.100000*%
G04 APERTURE END LIST*
D10*
X10450000Y-11300000D02*
G75*
G02*
X10150000Y-11300000I-150000J0D01*
G01*
X10150000Y-11300000D02*
G75*
G02*
X10450000Y-11300000I150000J0D01*
G01*
X14850000Y-11300000D02*
G75*
G02*
X14550000Y-11300000I-150000J0D01*
G01*
X14550000Y-11300000D02*
G75*
G02*
X14850000Y-11300000I150000J0D01*
G01*
X10000000Y-11000000D02*
X15000000Y-11000000D01*
X15000000Y-15000000D01*
X10000000Y-15000000D01*
X10000000Y-11000000D01*
X10450000Y-14700000D02*
G75*
G02*
X10150000Y-14700000I-150000J0D01*
G01*
X10150000Y-14700000D02*
G75*
G02*
X10450000Y-14700000I150000J0D01*
G01*
X14850000Y-14700000D02*
G75*
G02*
X14550000Y-14700000I-150000J0D01*
G01*
X14550000Y-14700000D02*
G75*
G02*
X14850000Y-14700000I150000J0D01*
G01*
D11*
D12*
X10723184Y-11764082D02*
X10763184Y-11804082D01*
X10763184Y-11764082D02*
X10723184Y-11804082D01*
X10958344Y-14043180D02*
X10998344Y-14083180D01*
X10998344Y-14043180D02*
X10958344Y-14083180D01*
X11676878Y-13230936D02*
X11716878Y-13270936D01*
X11716878Y-13230936D02*
X11676878Y-13270936D01*
X13282201Y-13234314D02*
X13322201Y-13274314D01*
X13322201Y-13234314D02*
X13282201Y-13274314D01*
X13974780Y-14051575D02*
X14014780Y-14091575D01*
X14014780Y-14051575D02*
X13974780Y-14091575D01*
X14233539Y-11763827D02*
X14273539Y-11803827D01*
X14273539Y-11763827D02*
X14233539Y-11803827D01*
X13761963Y-12846347D02*
G75*
G02*
X13681963Y-12846347I-40000J0D01*
G01*
X13681963Y-12846347D02*
G75*
G02*
X13761963Y-12846347I40000J0D01*
G01*
X13763546Y-12521459D02*
G75*
G02*
X13683546Y-12521459I-40000J0D01*
G01*
X13683546Y-12521459D02*
G75*
G02*
X13763546Y-12521459I40000J0D01*
G01*
X14777963Y-12846347D02*
G75*
G02*
X14697963Y-12846347I-40000J0D01*
G01*
X14697963Y-12846347D02*
G75*
G02*
X14777963Y-12846347I40000J0D01*
G01*
X14779546Y-12521459D02*
G75*
G02*
X14699546Y-12521459I-40000J0D01*
G01*
X14699546Y-12521459D02*
G75*
G02*
X14779546Y-12521459I40000J0D01*
G01*
D11*
X10258277Y-15313984D02*
X10258277Y-15113984D01*
X10258277Y-15113984D02*
X10305896Y-15113984D01*
X10305896Y-15113984D02*
X10334467Y-15123508D01*
X10334467Y-15123508D02*
X10353515Y-15142555D01*
X10353515Y-15142555D02*
X10363039Y-15161603D01*
X10363039Y-15161603D02*
X10372563Y-15199698D01*
X10372563Y-15199698D02*
X10372563Y-15228269D01*
X10372563Y-15228269D02*
X10363039Y-15266365D01*
X10363039Y-15266365D02*
X10353515Y-15285412D01*
X10353515Y-15285412D02*
X10334467Y-15304460D01*
X10334467Y-15304460D02*
X10305896Y-15313984D01*
X10305896Y-15313984D02*
X10258277Y-15313984D01*
X10458277Y-15313984D02*
X10458277Y-15180650D01*
X10458277Y-15218746D02*
X10467801Y-15199698D01*
X10467801Y-15199698D02*
X10477324Y-15190174D01*
X10477324Y-15190174D02*
X10496372Y-15180650D01*
X10496372Y-15180650D02*
X10515420Y-15180650D01*
X10582086Y-15313984D02*
X10582086Y-15180650D01*
X10582086Y-15113984D02*
X10572563Y-15123508D01*
X10572563Y-15123508D02*
X10582086Y-15133031D01*
X10582086Y-15133031D02*
X10591610Y-15123508D01*
X10591610Y-15123508D02*
X10582086Y-15113984D01*
X10582086Y-15113984D02*
X10582086Y-15133031D01*
X10705896Y-15313984D02*
X10686848Y-15304460D01*
X10686848Y-15304460D02*
X10677324Y-15285412D01*
X10677324Y-15285412D02*
X10677324Y-15113984D01*
X10810658Y-15313984D02*
X10791610Y-15304460D01*
X10791610Y-15304460D02*
X10782086Y-15285412D01*
X10782086Y-15285412D02*
X10782086Y-15113984D01*
X11039229Y-15313984D02*
X11039229Y-15113984D01*
X11039229Y-15113984D02*
X11105896Y-15256841D01*
X11105896Y-15256841D02*
X11172563Y-15113984D01*
X11172563Y-15113984D02*
X11172563Y-15313984D01*
X11353515Y-15313984D02*
X11353515Y-15209222D01*
X11353515Y-15209222D02*
X11343991Y-15190174D01*
X11343991Y-15190174D02*
X11324943Y-15180650D01*
X11324943Y-15180650D02*
X11286848Y-15180650D01*
X11286848Y-15180650D02*
X11267801Y-15190174D01*
X11353515Y-15304460D02*
X11334467Y-15313984D01*
X11334467Y-15313984D02*
X11286848Y-15313984D01*
X11286848Y-15313984D02*
X11267801Y-15304460D01*
X11267801Y-15304460D02*
X11258277Y-15285412D01*
X11258277Y-15285412D02*
X11258277Y-15266365D01*
X11258277Y-15266365D02*
X11267801Y-15247317D01*
X11267801Y-15247317D02*
X11286848Y-15237793D01*
X11286848Y-15237793D02*
X11334467Y-15237793D01*
X11334467Y-15237793D02*
X11353515Y-15228269D01*
X11448753Y-15180650D02*
X11448753Y-15380650D01*
X11448753Y-15190174D02*
X11467801Y-15180650D01*
X11467801Y-15180650D02*
X11505896Y-15180650D01*
X11505896Y-15180650D02*
X11524943Y-15190174D01*
X11524943Y-15190174D02*
X11534467Y-15199698D01*
X11534467Y-15199698D02*
X11543991Y-15218746D01*
X11543991Y-15218746D02*
X11543991Y-15275888D01*
X11543991Y-15275888D02*
X11534467Y-15294936D01*
X11534467Y-15294936D02*
X11524943Y-15304460D01*
X11524943Y-15304460D02*
X11505896Y-15313984D01*
X11505896Y-15313984D02*
X11467801Y-15313984D01*
X11467801Y-15313984D02*
X11448753Y-15304460D01*
X11629705Y-15294936D02*
X11639229Y-15304460D01*
X11639229Y-15304460D02*
X11629705Y-15313984D01*
X11629705Y-15313984D02*
X11620182Y-15304460D01*
X11620182Y-15304460D02*
X11629705Y-15294936D01*
X11629705Y-15294936D02*
X11629705Y-15313984D01*
X11629705Y-15190174D02*
X11639229Y-15199698D01*
X11639229Y-15199698D02*
X11629705Y-15209222D01*
X11629705Y-15209222D02*
X11620182Y-15199698D01*
X11620182Y-15199698D02*
X11629705Y-15190174D01*
X11629705Y-15190174D02*
X11629705Y-15209222D01*
D12*
X9957500Y-15622500D02*
X9997500Y-15662500D01*
X9997500Y-15622500D02*
X9957500Y-15662500D01*
D11*
X10296372Y-15533984D02*
X10315420Y-15533984D01*
X10315420Y-15533984D02*
X10334467Y-15543508D01*
X10334467Y-15543508D02*
X10343991Y-15553031D01*
X10343991Y-15553031D02*
X10353515Y-15572079D01*
X10353515Y-15572079D02*
X10363039Y-15610174D01*
X10363039Y-15610174D02*
X10363039Y-15657793D01*
X10363039Y-15657793D02*
X10353515Y-15695888D01*
X10353515Y-15695888D02*
X10343991Y-15714936D01*
X10343991Y-15714936D02*
X10334467Y-15724460D01*
X10334467Y-15724460D02*
X10315420Y-15733984D01*
X10315420Y-15733984D02*
X10296372Y-15733984D01*
X10296372Y-15733984D02*
X10277324Y-15724460D01*
X10277324Y-15724460D02*
X10267801Y-15714936D01*
X10267801Y-15714936D02*
X10258277Y-15695888D01*
X10258277Y-15695888D02*
X10248753Y-15657793D01*
X10248753Y-15657793D02*
X10248753Y-15610174D01*
X10248753Y-15610174D02*
X10258277Y-15572079D01*
X10258277Y-15572079D02*
X10267801Y-15553031D01*
X10267801Y-15553031D02*
X10277324Y-15543508D01*
X10277324Y-15543508D02*
X10296372Y-15533984D01*
X10448753Y-15714936D02*
X10458277Y-15724460D01*
X10458277Y-15724460D02*
X10448753Y-15733984D01*
X10448753Y-15733984D02*
X10439229Y-15724460D01*
X10439229Y-15724460D02*
X10448753Y-15714936D01*
X10448753Y-15714936D02*
X10448753Y-15733984D01*
X10629705Y-15600650D02*
X10629705Y-15733984D01*
X10582086Y-15524460D02*
X10534467Y-15667317D01*
X10534467Y-15667317D02*
X10658277Y-15667317D01*
X10772563Y-15533984D02*
X10791610Y-15533984D01*
X10791610Y-15533984D02*
X10810658Y-15543508D01*
X10810658Y-15543508D02*
X10820182Y-15553031D01*
X10820182Y-15553031D02*
X10829705Y-15572079D01*
X10829705Y-15572079D02*
X10839229Y-15610174D01*
X10839229Y-15610174D02*
X10839229Y-15657793D01*
X10839229Y-15657793D02*
X10829705Y-15695888D01*
X10829705Y-15695888D02*
X10820182Y-15714936D01*
X10820182Y-15714936D02*
X10810658Y-15724460D01*
X10810658Y-15724460D02*
X10791610Y-15733984D01*
X10791610Y-15733984D02*
X10772563Y-15733984D01*
X10772563Y-15733984D02*
X10753515Y-15724460D01*
X10753515Y-15724460D02*
X10743991Y-15714936D01*
X10743991Y-15714936D02*
X10734467Y-15695888D01*
X10734467Y-15695888D02*
X10724944Y-15657793D01*
X10724944Y-15657793D02*
X10724944Y-15610174D01*
X10724944Y-15610174D02*
X10734467Y-15572079D01*
X10734467Y-15572079D02*
X10743991Y-15553031D01*
X10743991Y-15553031D02*
X10753515Y-15543508D01*
X10753515Y-15543508D02*
X10772563Y-15533984D01*
X10963039Y-15533984D02*
X10982086Y-15533984D01*
X10982086Y-15533984D02*
X11001134Y-15543508D01*
X11001134Y-15543508D02*
X11010658Y-15553031D01*
X11010658Y-15553031D02*
X11020182Y-15572079D01*
X11020182Y-15572079D02*
X11029705Y-15610174D01*
X11029705Y-15610174D02*
X11029705Y-15657793D01*
X11029705Y-15657793D02*
X11020182Y-15695888D01*
X11020182Y-15695888D02*
X11010658Y-15714936D01*
X11010658Y-15714936D02*
X11001134Y-15724460D01*
X11001134Y-15724460D02*
X10982086Y-15733984D01*
X10982086Y-15733984D02*
X10963039Y-15733984D01*
X10963039Y-15733984D02*
X10943991Y-15724460D01*
X10943991Y-15724460D02*
X10934467Y-15714936D01*
X10934467Y-15714936D02*
X10924944Y-15695888D01*
X10924944Y-15695888D02*
X10915420Y-15657793D01*
X10915420Y-15657793D02*
X10915420Y-15610174D01*
X10915420Y-15610174D02*
X10924944Y-15572079D01*
X10924944Y-15572079D02*
X10934467Y-15553031D01*
X10934467Y-15553031D02*
X10943991Y-15543508D01*
X10943991Y-15543508D02*
X10963039Y-15533984D01*
X11115420Y-15733984D02*
X11115420Y-15600650D01*
X11115420Y-15619698D02*
X11124944Y-15610174D01*
X11124944Y-15610174D02*
X11143991Y-15600650D01*
X11143991Y-15600650D02*
X11172563Y-15600650D01*
X11172563Y-15600650D02*
X11191610Y-15610174D01*
X11191610Y-15610174D02*
X11201134Y-15629222D01*
X11201134Y-15629222D02*
X11201134Y-15733984D01*
X11201134Y-15629222D02*
X11210658Y-15610174D01*
X11210658Y-15610174D02*
X11229705Y-15600650D01*
X11229705Y-15600650D02*
X11258277Y-15600650D01*
X11258277Y-15600650D02*
X11277324Y-15610174D01*
X11277324Y-15610174D02*
X11286848Y-15629222D01*
X11286848Y-15629222D02*
X11286848Y-15733984D01*
X11382086Y-15733984D02*
X11382086Y-15600650D01*
X11382086Y-15619698D02*
X11391610Y-15610174D01*
X11391610Y-15610174D02*
X11410658Y-15600650D01*
X11410658Y-15600650D02*
X11439229Y-15600650D01*
X11439229Y-15600650D02*
X11458277Y-15610174D01*
X11458277Y-15610174D02*
X11467801Y-15629222D01*
X11467801Y-15629222D02*
X11467801Y-15733984D01*
X11467801Y-15629222D02*
X11477324Y-15610174D01*
X11477324Y-15610174D02*
X11496372Y-15600650D01*
X11496372Y-15600650D02*
X11524943Y-15600650D01*
X11524943Y-15600650D02*
X11543991Y-15610174D01*
X11543991Y-15610174D02*
X11553515Y-15629222D01*
X11553515Y-15629222D02*
X11553515Y-15733984D01*
X11943991Y-15524460D02*
X11772563Y-15781603D01*
X12201134Y-15533984D02*
X12220182Y-15533984D01*
X12220182Y-15533984D02*
X12239229Y-15543508D01*
X12239229Y-15543508D02*
X12248753Y-15553031D01*
X12248753Y-15553031D02*
X12258277Y-15572079D01*
X12258277Y-15572079D02*
X12267801Y-15610174D01*
X12267801Y-15610174D02*
X12267801Y-15657793D01*
X12267801Y-15657793D02*
X12258277Y-15695888D01*
X12258277Y-15695888D02*
X12248753Y-15714936D01*
X12248753Y-15714936D02*
X12239229Y-15724460D01*
X12239229Y-15724460D02*
X12220182Y-15733984D01*
X12220182Y-15733984D02*
X12201134Y-15733984D01*
X12201134Y-15733984D02*
X12182086Y-15724460D01*
X12182086Y-15724460D02*
X12172563Y-15714936D01*
X12172563Y-15714936D02*
X12163039Y-15695888D01*
X12163039Y-15695888D02*
X12153515Y-15657793D01*
X12153515Y-15657793D02*
X12153515Y-15610174D01*
X12153515Y-15610174D02*
X12163039Y-15572079D01*
X12163039Y-15572079D02*
X12172563Y-15553031D01*
X12172563Y-15553031D02*
X12182086Y-15543508D01*
X12182086Y-15543508D02*
X12201134Y-15533984D01*
X12353515Y-15714936D02*
X12363039Y-15724460D01*
X12363039Y-15724460D02*
X12353515Y-15733984D01*
X12353515Y-15733984D02*
X12343991Y-15724460D01*
X12343991Y-15724460D02*
X12353515Y-15714936D01*
X12353515Y-15714936D02*
X12353515Y-15733984D01*
X12486848Y-15533984D02*
X12505896Y-15533984D01*
X12505896Y-15533984D02*
X12524944Y-15543508D01*
X12524944Y-15543508D02*
X12534467Y-15553031D01*
X12534467Y-15553031D02*
X12543991Y-15572079D01*
X12543991Y-15572079D02*
X12553515Y-15610174D01*
X12553515Y-15610174D02*
X12553515Y-15657793D01*
X12553515Y-15657793D02*
X12543991Y-15695888D01*
X12543991Y-15695888D02*
X12534467Y-15714936D01*
X12534467Y-15714936D02*
X12524944Y-15724460D01*
X12524944Y-15724460D02*
X12505896Y-15733984D01*
X12505896Y-15733984D02*
X12486848Y-15733984D01*
X12486848Y-15733984D02*
X12467801Y-15724460D01*
X12467801Y-15724460D02*
X12458277Y-15714936D01*
X12458277Y-15714936D02*
X12448753Y-15695888D01*
X12448753Y-15695888D02*
X12439229Y-15657793D01*
X12439229Y-15657793D02*
X12439229Y-15610174D01*
X12439229Y-15610174D02*
X12448753Y-15572079D01*
X12448753Y-15572079D02*
X12458277Y-15553031D01*
X12458277Y-15553031D02*
X12467801Y-15543508D01*
X12467801Y-15543508D02*
X12486848Y-15533984D01*
X12743991Y-15733984D02*
X12629706Y-15733984D01*
X12686848Y-15733984D02*
X12686848Y-15533984D01*
X12686848Y-15533984D02*
X12667801Y-15562555D01*
X12667801Y-15562555D02*
X12648753Y-15581603D01*
X12648753Y-15581603D02*
X12629706Y-15591127D01*
X12924944Y-15533984D02*
X12829706Y-15533984D01*
X12829706Y-15533984D02*
X12820182Y-15629222D01*
X12820182Y-15629222D02*
X12829706Y-15619698D01*
X12829706Y-15619698D02*
X12848753Y-15610174D01*
X12848753Y-15610174D02*
X12896372Y-15610174D01*
X12896372Y-15610174D02*
X12915420Y-15619698D01*
X12915420Y-15619698D02*
X12924944Y-15629222D01*
X12924944Y-15629222D02*
X12934467Y-15648269D01*
X12934467Y-15648269D02*
X12934467Y-15695888D01*
X12934467Y-15695888D02*
X12924944Y-15714936D01*
X12924944Y-15714936D02*
X12915420Y-15724460D01*
X12915420Y-15724460D02*
X12896372Y-15733984D01*
X12896372Y-15733984D02*
X12848753Y-15733984D01*
X12848753Y-15733984D02*
X12829706Y-15724460D01*
X12829706Y-15724460D02*
X12820182Y-15714936D01*
X13001134Y-15533984D02*
X13134467Y-15533984D01*
X13134467Y-15533984D02*
X13048753Y-15733984D01*
X13201134Y-15533984D02*
X13201134Y-15572079D01*
X13277325Y-15533984D02*
X13277325Y-15572079D01*
X13572563Y-15810174D02*
X13563039Y-15800650D01*
X13563039Y-15800650D02*
X13543991Y-15772079D01*
X13543991Y-15772079D02*
X13534468Y-15753031D01*
X13534468Y-15753031D02*
X13524944Y-15724460D01*
X13524944Y-15724460D02*
X13515420Y-15676841D01*
X13515420Y-15676841D02*
X13515420Y-15638746D01*
X13515420Y-15638746D02*
X13524944Y-15591127D01*
X13524944Y-15591127D02*
X13534468Y-15562555D01*
X13534468Y-15562555D02*
X13543991Y-15543508D01*
X13543991Y-15543508D02*
X13563039Y-15514936D01*
X13563039Y-15514936D02*
X13572563Y-15505412D01*
X13734468Y-15533984D02*
X13696372Y-15533984D01*
X13696372Y-15533984D02*
X13677325Y-15543508D01*
X13677325Y-15543508D02*
X13667801Y-15553031D01*
X13667801Y-15553031D02*
X13648753Y-15581603D01*
X13648753Y-15581603D02*
X13639229Y-15619698D01*
X13639229Y-15619698D02*
X13639229Y-15695888D01*
X13639229Y-15695888D02*
X13648753Y-15714936D01*
X13648753Y-15714936D02*
X13658277Y-15724460D01*
X13658277Y-15724460D02*
X13677325Y-15733984D01*
X13677325Y-15733984D02*
X13715420Y-15733984D01*
X13715420Y-15733984D02*
X13734468Y-15724460D01*
X13734468Y-15724460D02*
X13743991Y-15714936D01*
X13743991Y-15714936D02*
X13753515Y-15695888D01*
X13753515Y-15695888D02*
X13753515Y-15648269D01*
X13753515Y-15648269D02*
X13743991Y-15629222D01*
X13743991Y-15629222D02*
X13734468Y-15619698D01*
X13734468Y-15619698D02*
X13715420Y-15610174D01*
X13715420Y-15610174D02*
X13677325Y-15610174D01*
X13677325Y-15610174D02*
X13658277Y-15619698D01*
X13658277Y-15619698D02*
X13648753Y-15629222D01*
X13648753Y-15629222D02*
X13639229Y-15648269D01*
X13991610Y-15733984D02*
X13991610Y-15533984D01*
X14077325Y-15733984D02*
X14077325Y-15629222D01*
X14077325Y-15629222D02*
X14067801Y-15610174D01*
X14067801Y-15610174D02*
X14048753Y-15600650D01*
X14048753Y-15600650D02*
X14020182Y-15600650D01*
X14020182Y-15600650D02*
X14001134Y-15610174D01*
X14001134Y-15610174D02*
X13991610Y-15619698D01*
X14201134Y-15733984D02*
X14182087Y-15724460D01*
X14182087Y-15724460D02*
X14172563Y-15714936D01*
X14172563Y-15714936D02*
X14163039Y-15695888D01*
X14163039Y-15695888D02*
X14163039Y-15638746D01*
X14163039Y-15638746D02*
X14172563Y-15619698D01*
X14172563Y-15619698D02*
X14182087Y-15610174D01*
X14182087Y-15610174D02*
X14201134Y-15600650D01*
X14201134Y-15600650D02*
X14229706Y-15600650D01*
X14229706Y-15600650D02*
X14248753Y-15610174D01*
X14248753Y-15610174D02*
X14258277Y-15619698D01*
X14258277Y-15619698D02*
X14267801Y-15638746D01*
X14267801Y-15638746D02*
X14267801Y-15695888D01*
X14267801Y-15695888D02*
X14258277Y-15714936D01*
X14258277Y-15714936D02*
X14248753Y-15724460D01*
X14248753Y-15724460D02*
X14229706Y-15733984D01*
X14229706Y-15733984D02*
X14201134Y-15733984D01*
X14382087Y-15733984D02*
X14363039Y-15724460D01*
X14363039Y-15724460D02*
X14353515Y-15705412D01*
X14353515Y-15705412D02*
X14353515Y-15533984D01*
X14534468Y-15724460D02*
X14515420Y-15733984D01*
X14515420Y-15733984D02*
X14477325Y-15733984D01*
X14477325Y-15733984D02*
X14458277Y-15724460D01*
X14458277Y-15724460D02*
X14448753Y-15705412D01*
X14448753Y-15705412D02*
X14448753Y-15629222D01*
X14448753Y-15629222D02*
X14458277Y-15610174D01*
X14458277Y-15610174D02*
X14477325Y-15600650D01*
X14477325Y-15600650D02*
X14515420Y-15600650D01*
X14515420Y-15600650D02*
X14534468Y-15610174D01*
X14534468Y-15610174D02*
X14543991Y-15629222D01*
X14543991Y-15629222D02*
X14543991Y-15648269D01*
X14543991Y-15648269D02*
X14448753Y-15667317D01*
X14620182Y-15724460D02*
X14639230Y-15733984D01*
X14639230Y-15733984D02*
X14677325Y-15733984D01*
X14677325Y-15733984D02*
X14696372Y-15724460D01*
X14696372Y-15724460D02*
X14705896Y-15705412D01*
X14705896Y-15705412D02*
X14705896Y-15695888D01*
X14705896Y-15695888D02*
X14696372Y-15676841D01*
X14696372Y-15676841D02*
X14677325Y-15667317D01*
X14677325Y-15667317D02*
X14648753Y-15667317D01*
X14648753Y-15667317D02*
X14629706Y-15657793D01*
X14629706Y-15657793D02*
X14620182Y-15638746D01*
X14620182Y-15638746D02*
X14620182Y-15629222D01*
X14620182Y-15629222D02*
X14629706Y-15610174D01*
X14629706Y-15610174D02*
X14648753Y-15600650D01*
X14648753Y-15600650D02*
X14677325Y-15600650D01*
X14677325Y-15600650D02*
X14696372Y-15610174D01*
X14772563Y-15810174D02*
X14782087Y-15800650D01*
X14782087Y-15800650D02*
X14801134Y-15772079D01*
X14801134Y-15772079D02*
X14810658Y-15753031D01*
X14810658Y-15753031D02*
X14820182Y-15724460D01*
X14820182Y-15724460D02*
X14829706Y-15676841D01*
X14829706Y-15676841D02*
X14829706Y-15638746D01*
X14829706Y-15638746D02*
X14820182Y-15591127D01*
X14820182Y-15591127D02*
X14810658Y-15562555D01*
X14810658Y-15562555D02*
X14801134Y-15543508D01*
X14801134Y-15543508D02*
X14782087Y-15514936D01*
X14782087Y-15514936D02*
X14772563Y-15505412D01*
D12*
X9997500Y-15906500D02*
G75*
G02*
X9917500Y-15906500I-40000J0D01*
G01*
X9917500Y-15906500D02*
G75*
G02*
X9997500Y-15906500I40000J0D01*
G01*
D11*
X10296372Y-15797984D02*
X10315420Y-15797984D01*
X10315420Y-15797984D02*
X10334467Y-15807508D01*
X10334467Y-15807508D02*
X10343991Y-15817031D01*
X10343991Y-15817031D02*
X10353515Y-15836079D01*
X10353515Y-15836079D02*
X10363039Y-15874174D01*
X10363039Y-15874174D02*
X10363039Y-15921793D01*
X10363039Y-15921793D02*
X10353515Y-15959888D01*
X10353515Y-15959888D02*
X10343991Y-15978936D01*
X10343991Y-15978936D02*
X10334467Y-15988460D01*
X10334467Y-15988460D02*
X10315420Y-15997984D01*
X10315420Y-15997984D02*
X10296372Y-15997984D01*
X10296372Y-15997984D02*
X10277324Y-15988460D01*
X10277324Y-15988460D02*
X10267801Y-15978936D01*
X10267801Y-15978936D02*
X10258277Y-15959888D01*
X10258277Y-15959888D02*
X10248753Y-15921793D01*
X10248753Y-15921793D02*
X10248753Y-15874174D01*
X10248753Y-15874174D02*
X10258277Y-15836079D01*
X10258277Y-15836079D02*
X10267801Y-15817031D01*
X10267801Y-15817031D02*
X10277324Y-15807508D01*
X10277324Y-15807508D02*
X10296372Y-15797984D01*
X10448753Y-15978936D02*
X10458277Y-15988460D01*
X10458277Y-15988460D02*
X10448753Y-15997984D01*
X10448753Y-15997984D02*
X10439229Y-15988460D01*
X10439229Y-15988460D02*
X10448753Y-15978936D01*
X10448753Y-15978936D02*
X10448753Y-15997984D01*
X10572563Y-15883698D02*
X10553515Y-15874174D01*
X10553515Y-15874174D02*
X10543991Y-15864650D01*
X10543991Y-15864650D02*
X10534467Y-15845603D01*
X10534467Y-15845603D02*
X10534467Y-15836079D01*
X10534467Y-15836079D02*
X10543991Y-15817031D01*
X10543991Y-15817031D02*
X10553515Y-15807508D01*
X10553515Y-15807508D02*
X10572563Y-15797984D01*
X10572563Y-15797984D02*
X10610658Y-15797984D01*
X10610658Y-15797984D02*
X10629705Y-15807508D01*
X10629705Y-15807508D02*
X10639229Y-15817031D01*
X10639229Y-15817031D02*
X10648753Y-15836079D01*
X10648753Y-15836079D02*
X10648753Y-15845603D01*
X10648753Y-15845603D02*
X10639229Y-15864650D01*
X10639229Y-15864650D02*
X10629705Y-15874174D01*
X10629705Y-15874174D02*
X10610658Y-15883698D01*
X10610658Y-15883698D02*
X10572563Y-15883698D01*
X10572563Y-15883698D02*
X10553515Y-15893222D01*
X10553515Y-15893222D02*
X10543991Y-15902746D01*
X10543991Y-15902746D02*
X10534467Y-15921793D01*
X10534467Y-15921793D02*
X10534467Y-15959888D01*
X10534467Y-15959888D02*
X10543991Y-15978936D01*
X10543991Y-15978936D02*
X10553515Y-15988460D01*
X10553515Y-15988460D02*
X10572563Y-15997984D01*
X10572563Y-15997984D02*
X10610658Y-15997984D01*
X10610658Y-15997984D02*
X10629705Y-15988460D01*
X10629705Y-15988460D02*
X10639229Y-15978936D01*
X10639229Y-15978936D02*
X10648753Y-15959888D01*
X10648753Y-15959888D02*
X10648753Y-15921793D01*
X10648753Y-15921793D02*
X10639229Y-15902746D01*
X10639229Y-15902746D02*
X10629705Y-15893222D01*
X10629705Y-15893222D02*
X10610658Y-15883698D01*
X10772563Y-15797984D02*
X10791610Y-15797984D01*
X10791610Y-15797984D02*
X10810658Y-15807508D01*
X10810658Y-15807508D02*
X10820182Y-15817031D01*
X10820182Y-15817031D02*
X10829705Y-15836079D01*
X10829705Y-15836079D02*
X10839229Y-15874174D01*
X10839229Y-15874174D02*
X10839229Y-15921793D01*
X10839229Y-15921793D02*
X10829705Y-15959888D01*
X10829705Y-15959888D02*
X10820182Y-15978936D01*
X10820182Y-15978936D02*
X10810658Y-15988460D01*
X10810658Y-15988460D02*
X10791610Y-15997984D01*
X10791610Y-15997984D02*
X10772563Y-15997984D01*
X10772563Y-15997984D02*
X10753515Y-15988460D01*
X10753515Y-15988460D02*
X10743991Y-15978936D01*
X10743991Y-15978936D02*
X10734467Y-15959888D01*
X10734467Y-15959888D02*
X10724944Y-15921793D01*
X10724944Y-15921793D02*
X10724944Y-15874174D01*
X10724944Y-15874174D02*
X10734467Y-15836079D01*
X10734467Y-15836079D02*
X10743991Y-15817031D01*
X10743991Y-15817031D02*
X10753515Y-15807508D01*
X10753515Y-15807508D02*
X10772563Y-15797984D01*
X10963039Y-15797984D02*
X10982086Y-15797984D01*
X10982086Y-15797984D02*
X11001134Y-15807508D01*
X11001134Y-15807508D02*
X11010658Y-15817031D01*
X11010658Y-15817031D02*
X11020182Y-15836079D01*
X11020182Y-15836079D02*
X11029705Y-15874174D01*
X11029705Y-15874174D02*
X11029705Y-15921793D01*
X11029705Y-15921793D02*
X11020182Y-15959888D01*
X11020182Y-15959888D02*
X11010658Y-15978936D01*
X11010658Y-15978936D02*
X11001134Y-15988460D01*
X11001134Y-15988460D02*
X10982086Y-15997984D01*
X10982086Y-15997984D02*
X10963039Y-15997984D01*
X10963039Y-15997984D02*
X10943991Y-15988460D01*
X10943991Y-15988460D02*
X10934467Y-15978936D01*
X10934467Y-15978936D02*
X10924944Y-15959888D01*
X10924944Y-15959888D02*
X10915420Y-15921793D01*
X10915420Y-15921793D02*
X10915420Y-15874174D01*
X10915420Y-15874174D02*
X10924944Y-15836079D01*
X10924944Y-15836079D02*
X10934467Y-15817031D01*
X10934467Y-15817031D02*
X10943991Y-15807508D01*
X10943991Y-15807508D02*
X10963039Y-15797984D01*
X11115420Y-15997984D02*
X11115420Y-15864650D01*
X11115420Y-15883698D02*
X11124944Y-15874174D01*
X11124944Y-15874174D02*
X11143991Y-15864650D01*
X11143991Y-15864650D02*
X11172563Y-15864650D01*
X11172563Y-15864650D02*
X11191610Y-15874174D01*
X11191610Y-15874174D02*
X11201134Y-15893222D01*
X11201134Y-15893222D02*
X11201134Y-15997984D01*
X11201134Y-15893222D02*
X11210658Y-15874174D01*
X11210658Y-15874174D02*
X11229705Y-15864650D01*
X11229705Y-15864650D02*
X11258277Y-15864650D01*
X11258277Y-15864650D02*
X11277324Y-15874174D01*
X11277324Y-15874174D02*
X11286848Y-15893222D01*
X11286848Y-15893222D02*
X11286848Y-15997984D01*
X11382086Y-15997984D02*
X11382086Y-15864650D01*
X11382086Y-15883698D02*
X11391610Y-15874174D01*
X11391610Y-15874174D02*
X11410658Y-15864650D01*
X11410658Y-15864650D02*
X11439229Y-15864650D01*
X11439229Y-15864650D02*
X11458277Y-15874174D01*
X11458277Y-15874174D02*
X11467801Y-15893222D01*
X11467801Y-15893222D02*
X11467801Y-15997984D01*
X11467801Y-15893222D02*
X11477324Y-15874174D01*
X11477324Y-15874174D02*
X11496372Y-15864650D01*
X11496372Y-15864650D02*
X11524943Y-15864650D01*
X11524943Y-15864650D02*
X11543991Y-15874174D01*
X11543991Y-15874174D02*
X11553515Y-15893222D01*
X11553515Y-15893222D02*
X11553515Y-15997984D01*
X11943991Y-15788460D02*
X11772563Y-16045603D01*
X12201134Y-15797984D02*
X12220182Y-15797984D01*
X12220182Y-15797984D02*
X12239229Y-15807508D01*
X12239229Y-15807508D02*
X12248753Y-15817031D01*
X12248753Y-15817031D02*
X12258277Y-15836079D01*
X12258277Y-15836079D02*
X12267801Y-15874174D01*
X12267801Y-15874174D02*
X12267801Y-15921793D01*
X12267801Y-15921793D02*
X12258277Y-15959888D01*
X12258277Y-15959888D02*
X12248753Y-15978936D01*
X12248753Y-15978936D02*
X12239229Y-15988460D01*
X12239229Y-15988460D02*
X12220182Y-15997984D01*
X12220182Y-15997984D02*
X12201134Y-15997984D01*
X12201134Y-15997984D02*
X12182086Y-15988460D01*
X12182086Y-15988460D02*
X12172563Y-15978936D01*
X12172563Y-15978936D02*
X12163039Y-15959888D01*
X12163039Y-15959888D02*
X12153515Y-15921793D01*
X12153515Y-15921793D02*
X12153515Y-15874174D01*
X12153515Y-15874174D02*
X12163039Y-15836079D01*
X12163039Y-15836079D02*
X12172563Y-15817031D01*
X12172563Y-15817031D02*
X12182086Y-15807508D01*
X12182086Y-15807508D02*
X12201134Y-15797984D01*
X12353515Y-15978936D02*
X12363039Y-15988460D01*
X12363039Y-15988460D02*
X12353515Y-15997984D01*
X12353515Y-15997984D02*
X12343991Y-15988460D01*
X12343991Y-15988460D02*
X12353515Y-15978936D01*
X12353515Y-15978936D02*
X12353515Y-15997984D01*
X12486848Y-15797984D02*
X12505896Y-15797984D01*
X12505896Y-15797984D02*
X12524944Y-15807508D01*
X12524944Y-15807508D02*
X12534467Y-15817031D01*
X12534467Y-15817031D02*
X12543991Y-15836079D01*
X12543991Y-15836079D02*
X12553515Y-15874174D01*
X12553515Y-15874174D02*
X12553515Y-15921793D01*
X12553515Y-15921793D02*
X12543991Y-15959888D01*
X12543991Y-15959888D02*
X12534467Y-15978936D01*
X12534467Y-15978936D02*
X12524944Y-15988460D01*
X12524944Y-15988460D02*
X12505896Y-15997984D01*
X12505896Y-15997984D02*
X12486848Y-15997984D01*
X12486848Y-15997984D02*
X12467801Y-15988460D01*
X12467801Y-15988460D02*
X12458277Y-15978936D01*
X12458277Y-15978936D02*
X12448753Y-15959888D01*
X12448753Y-15959888D02*
X12439229Y-15921793D01*
X12439229Y-15921793D02*
X12439229Y-15874174D01*
X12439229Y-15874174D02*
X12448753Y-15836079D01*
X12448753Y-15836079D02*
X12458277Y-15817031D01*
X12458277Y-15817031D02*
X12467801Y-15807508D01*
X12467801Y-15807508D02*
X12486848Y-15797984D01*
X12620182Y-15797984D02*
X12743991Y-15797984D01*
X12743991Y-15797984D02*
X12677325Y-15874174D01*
X12677325Y-15874174D02*
X12705896Y-15874174D01*
X12705896Y-15874174D02*
X12724944Y-15883698D01*
X12724944Y-15883698D02*
X12734467Y-15893222D01*
X12734467Y-15893222D02*
X12743991Y-15912269D01*
X12743991Y-15912269D02*
X12743991Y-15959888D01*
X12743991Y-15959888D02*
X12734467Y-15978936D01*
X12734467Y-15978936D02*
X12724944Y-15988460D01*
X12724944Y-15988460D02*
X12705896Y-15997984D01*
X12705896Y-15997984D02*
X12648753Y-15997984D01*
X12648753Y-15997984D02*
X12629706Y-15988460D01*
X12629706Y-15988460D02*
X12620182Y-15978936D01*
X12934467Y-15997984D02*
X12820182Y-15997984D01*
X12877325Y-15997984D02*
X12877325Y-15797984D01*
X12877325Y-15797984D02*
X12858277Y-15826555D01*
X12858277Y-15826555D02*
X12839229Y-15845603D01*
X12839229Y-15845603D02*
X12820182Y-15855127D01*
X13115420Y-15797984D02*
X13020182Y-15797984D01*
X13020182Y-15797984D02*
X13010658Y-15893222D01*
X13010658Y-15893222D02*
X13020182Y-15883698D01*
X13020182Y-15883698D02*
X13039229Y-15874174D01*
X13039229Y-15874174D02*
X13086848Y-15874174D01*
X13086848Y-15874174D02*
X13105896Y-15883698D01*
X13105896Y-15883698D02*
X13115420Y-15893222D01*
X13115420Y-15893222D02*
X13124944Y-15912269D01*
X13124944Y-15912269D02*
X13124944Y-15959888D01*
X13124944Y-15959888D02*
X13115420Y-15978936D01*
X13115420Y-15978936D02*
X13105896Y-15988460D01*
X13105896Y-15988460D02*
X13086848Y-15997984D01*
X13086848Y-15997984D02*
X13039229Y-15997984D01*
X13039229Y-15997984D02*
X13020182Y-15988460D01*
X13020182Y-15988460D02*
X13010658Y-15978936D01*
X13201134Y-15797984D02*
X13201134Y-15836079D01*
X13277325Y-15797984D02*
X13277325Y-15836079D01*
X13572563Y-16074174D02*
X13563039Y-16064650D01*
X13563039Y-16064650D02*
X13543991Y-16036079D01*
X13543991Y-16036079D02*
X13534468Y-16017031D01*
X13534468Y-16017031D02*
X13524944Y-15988460D01*
X13524944Y-15988460D02*
X13515420Y-15940841D01*
X13515420Y-15940841D02*
X13515420Y-15902746D01*
X13515420Y-15902746D02*
X13524944Y-15855127D01*
X13524944Y-15855127D02*
X13534468Y-15826555D01*
X13534468Y-15826555D02*
X13543991Y-15807508D01*
X13543991Y-15807508D02*
X13563039Y-15778936D01*
X13563039Y-15778936D02*
X13572563Y-15769412D01*
X13734468Y-15864650D02*
X13734468Y-15997984D01*
X13686848Y-15788460D02*
X13639229Y-15931317D01*
X13639229Y-15931317D02*
X13763039Y-15931317D01*
X13991610Y-15997984D02*
X13991610Y-15797984D01*
X14077325Y-15997984D02*
X14077325Y-15893222D01*
X14077325Y-15893222D02*
X14067801Y-15874174D01*
X14067801Y-15874174D02*
X14048753Y-15864650D01*
X14048753Y-15864650D02*
X14020182Y-15864650D01*
X14020182Y-15864650D02*
X14001134Y-15874174D01*
X14001134Y-15874174D02*
X13991610Y-15883698D01*
X14201134Y-15997984D02*
X14182087Y-15988460D01*
X14182087Y-15988460D02*
X14172563Y-15978936D01*
X14172563Y-15978936D02*
X14163039Y-15959888D01*
X14163039Y-15959888D02*
X14163039Y-15902746D01*
X14163039Y-15902746D02*
X14172563Y-15883698D01*
X14172563Y-15883698D02*
X14182087Y-15874174D01*
X14182087Y-15874174D02*
X14201134Y-15864650D01*
X14201134Y-15864650D02*
X14229706Y-15864650D01*
X14229706Y-15864650D02*
X14248753Y-15874174D01*
X14248753Y-15874174D02*
X14258277Y-15883698D01*
X14258277Y-15883698D02*
X14267801Y-15902746D01*
X14267801Y-15902746D02*
X14267801Y-15959888D01*
X14267801Y-15959888D02*
X14258277Y-15978936D01*
X14258277Y-15978936D02*
X14248753Y-15988460D01*
X14248753Y-15988460D02*
X14229706Y-15997984D01*
X14229706Y-15997984D02*
X14201134Y-15997984D01*
X14382087Y-15997984D02*
X14363039Y-15988460D01*
X14363039Y-15988460D02*
X14353515Y-15969412D01*
X14353515Y-15969412D02*
X14353515Y-15797984D01*
X14534468Y-15988460D02*
X14515420Y-15997984D01*
X14515420Y-15997984D02*
X14477325Y-15997984D01*
X14477325Y-15997984D02*
X14458277Y-15988460D01*
X14458277Y-15988460D02*
X14448753Y-15969412D01*
X14448753Y-15969412D02*
X14448753Y-15893222D01*
X14448753Y-15893222D02*
X14458277Y-15874174D01*
X14458277Y-15874174D02*
X14477325Y-15864650D01*
X14477325Y-15864650D02*
X14515420Y-15864650D01*
X14515420Y-15864650D02*
X14534468Y-15874174D01*
X14534468Y-15874174D02*
X14543991Y-15893222D01*
X14543991Y-15893222D02*
X14543991Y-15912269D01*
X14543991Y-15912269D02*
X14448753Y-15931317D01*
X14620182Y-15988460D02*
X14639230Y-15997984D01*
X14639230Y-15997984D02*
X14677325Y-15997984D01*
X14677325Y-15997984D02*
X14696372Y-15988460D01*
X14696372Y-15988460D02*
X14705896Y-15969412D01*
X14705896Y-15969412D02*
X14705896Y-15959888D01*
X14705896Y-15959888D02*
X14696372Y-15940841D01*
X14696372Y-15940841D02*
X14677325Y-15931317D01*
X14677325Y-15931317D02*
X14648753Y-15931317D01*
X14648753Y-15931317D02*
X14629706Y-15921793D01*
X14629706Y-15921793D02*
X14620182Y-15902746D01*
X14620182Y-15902746D02*
X14620182Y-15893222D01*
X14620182Y-15893222D02*
X14629706Y-15874174D01*
X14629706Y-15874174D02*
X14648753Y-15864650D01*
X14648753Y-15864650D02*
X14677325Y-15864650D01*
X14677325Y-15864650D02*
X14696372Y-15874174D01*
X14772563Y-16074174D02*
X14782087Y-16064650D01*
X14782087Y-16064650D02*
X14801134Y-16036079D01*
X14801134Y-16036079D02*
X14810658Y-16017031D01*
X14810658Y-16017031D02*
X14820182Y-15988460D01*
X14820182Y-15988460D02*
X14829706Y-15940841D01*
X14829706Y-15940841D02*
X14829706Y-15902746D01*
X14829706Y-15902746D02*
X14820182Y-15855127D01*
X14820182Y-15855127D02*
X14810658Y-15826555D01*
X14810658Y-15826555D02*
X14801134Y-15807508D01*
X14801134Y-15807508D02*
X14782087Y-15778936D01*
X14782087Y-15778936D02*
X14772563Y-15769412D01*
M02*
