G04 #@! TF.GenerationSoftware,KiCad,Pcbnew,9.0.5*
G04 #@! TF.CreationDate,2025-11-14T17:50:21-08:00*
G04 #@! TF.ProjectId,ZB_Camera_01,5a425f43-616d-4657-9261-5f30312e6b69,rev?*
G04 #@! TF.SameCoordinates,Original*
G04 #@! TF.FileFunction,Copper,L2,Bot*
G04 #@! TF.FilePolarity,Positive*
%FSLAX46Y46*%
G04 Gerber Fmt 4.6, Leading zero omitted, Abs format (unit mm)*
G04 Created by KiCad (PCBNEW 9.0.5) date 2025-11-14 17:50:21*
%MOMM*%
%LPD*%
G01*
G04 APERTURE LIST*
G04 #@! TA.AperFunction,ComponentPad*
%ADD10C,1.600000*%
G04 #@! TD*
G04 #@! TA.AperFunction,ViaPad*
%ADD11C,1.000000*%
G04 #@! TD*
G04 APERTURE END LIST*
D10*
X137235459Y-125214587D03*
X147395459Y-125214587D03*
X137219629Y-128463475D03*
X147379629Y-128463475D03*
D11*
X142535394Y-117838268D03*
X133022009Y-132543143D03*
X107431835Y-117840821D03*
X139947804Y-140715754D03*
X109783443Y-140631799D03*
X116968777Y-132509356D03*
G04 #@! TA.AperFunction,Conductor*
G36*
X149442539Y-110520185D02*
G01*
X149488294Y-110572989D01*
X149499500Y-110624500D01*
X149499500Y-149375500D01*
X149479815Y-149442539D01*
X149427011Y-149488294D01*
X149375500Y-149499500D01*
X100624500Y-149499500D01*
X100557461Y-149479815D01*
X100511706Y-149427011D01*
X100500500Y-149375500D01*
X100500500Y-146868872D01*
X100999500Y-146868872D01*
X100999500Y-147131127D01*
X101020436Y-147290140D01*
X101033730Y-147391116D01*
X101055178Y-147471161D01*
X101101602Y-147644418D01*
X101101605Y-147644428D01*
X101201953Y-147886690D01*
X101201958Y-147886700D01*
X101333075Y-148113803D01*
X101492718Y-148321851D01*
X101492726Y-148321860D01*
X101678140Y-148507274D01*
X101678148Y-148507281D01*
X101886196Y-148666924D01*
X102113299Y-148798041D01*
X102113309Y-148798046D01*
X102355571Y-148898394D01*
X102355581Y-148898398D01*
X102608884Y-148966270D01*
X102868880Y-149000500D01*
X102868887Y-149000500D01*
X103131113Y-149000500D01*
X103131120Y-149000500D01*
X103391116Y-148966270D01*
X103644419Y-148898398D01*
X103886697Y-148798043D01*
X104113803Y-148666924D01*
X104321851Y-148507282D01*
X104321855Y-148507277D01*
X104321860Y-148507274D01*
X104507274Y-148321860D01*
X104507277Y-148321855D01*
X104507282Y-148321851D01*
X104666924Y-148113803D01*
X104798043Y-147886697D01*
X104898398Y-147644419D01*
X104966270Y-147391116D01*
X105000500Y-147131120D01*
X105000500Y-146868880D01*
X105000499Y-146868872D01*
X144999500Y-146868872D01*
X144999500Y-147131127D01*
X145020436Y-147290140D01*
X145033730Y-147391116D01*
X145055178Y-147471161D01*
X145101602Y-147644418D01*
X145101605Y-147644428D01*
X145201953Y-147886690D01*
X145201958Y-147886700D01*
X145333075Y-148113803D01*
X145492718Y-148321851D01*
X145492726Y-148321860D01*
X145678140Y-148507274D01*
X145678148Y-148507281D01*
X145886196Y-148666924D01*
X146113299Y-148798041D01*
X146113309Y-148798046D01*
X146355571Y-148898394D01*
X146355581Y-148898398D01*
X146608884Y-148966270D01*
X146868880Y-149000500D01*
X146868887Y-149000500D01*
X147131113Y-149000500D01*
X147131120Y-149000500D01*
X147391116Y-148966270D01*
X147644419Y-148898398D01*
X147886697Y-148798043D01*
X148113803Y-148666924D01*
X148321851Y-148507282D01*
X148321855Y-148507277D01*
X148321860Y-148507274D01*
X148507274Y-148321860D01*
X148507277Y-148321855D01*
X148507282Y-148321851D01*
X148666924Y-148113803D01*
X148798043Y-147886697D01*
X148898398Y-147644419D01*
X148966270Y-147391116D01*
X149000500Y-147131120D01*
X149000500Y-146868880D01*
X148966270Y-146608884D01*
X148898398Y-146355581D01*
X148800204Y-146118520D01*
X148798046Y-146113309D01*
X148798041Y-146113299D01*
X148666924Y-145886196D01*
X148507281Y-145678148D01*
X148507274Y-145678140D01*
X148321860Y-145492726D01*
X148321851Y-145492718D01*
X148113803Y-145333075D01*
X147886700Y-145201958D01*
X147886690Y-145201953D01*
X147644428Y-145101605D01*
X147644421Y-145101603D01*
X147644419Y-145101602D01*
X147391116Y-145033730D01*
X147333339Y-145026123D01*
X147131127Y-144999500D01*
X147131120Y-144999500D01*
X146868880Y-144999500D01*
X146868872Y-144999500D01*
X146637772Y-145029926D01*
X146608884Y-145033730D01*
X146355581Y-145101602D01*
X146355571Y-145101605D01*
X146113309Y-145201953D01*
X146113299Y-145201958D01*
X145886196Y-145333075D01*
X145678148Y-145492718D01*
X145492718Y-145678148D01*
X145333075Y-145886196D01*
X145201958Y-146113299D01*
X145201953Y-146113309D01*
X145101605Y-146355571D01*
X145101602Y-146355581D01*
X145033730Y-146608885D01*
X144999500Y-146868872D01*
X105000499Y-146868872D01*
X104966270Y-146608884D01*
X104898398Y-146355581D01*
X104800204Y-146118520D01*
X104798046Y-146113309D01*
X104798041Y-146113299D01*
X104666924Y-145886196D01*
X104507281Y-145678148D01*
X104507274Y-145678140D01*
X104321860Y-145492726D01*
X104321851Y-145492718D01*
X104113803Y-145333075D01*
X103886700Y-145201958D01*
X103886690Y-145201953D01*
X103644428Y-145101605D01*
X103644421Y-145101603D01*
X103644419Y-145101602D01*
X103391116Y-145033730D01*
X103333339Y-145026123D01*
X103131127Y-144999500D01*
X103131120Y-144999500D01*
X102868880Y-144999500D01*
X102868872Y-144999500D01*
X102637772Y-145029926D01*
X102608884Y-145033730D01*
X102355581Y-145101602D01*
X102355571Y-145101605D01*
X102113309Y-145201953D01*
X102113299Y-145201958D01*
X101886196Y-145333075D01*
X101678148Y-145492718D01*
X101492718Y-145678148D01*
X101333075Y-145886196D01*
X101201958Y-146113299D01*
X101201953Y-146113309D01*
X101101605Y-146355571D01*
X101101602Y-146355581D01*
X101033730Y-146608885D01*
X100999500Y-146868872D01*
X100500500Y-146868872D01*
X100500500Y-128361123D01*
X135919129Y-128361123D01*
X135919129Y-128565826D01*
X135951151Y-128768009D01*
X136014410Y-128962698D01*
X136107344Y-129145088D01*
X136227657Y-129310688D01*
X136372415Y-129455446D01*
X136527378Y-129568031D01*
X136538019Y-129575762D01*
X136654236Y-129634978D01*
X136720405Y-129668693D01*
X136720407Y-129668693D01*
X136720410Y-129668695D01*
X136824766Y-129702602D01*
X136915094Y-129731952D01*
X137016186Y-129747963D01*
X137117277Y-129763975D01*
X137117278Y-129763975D01*
X137321980Y-129763975D01*
X137321981Y-129763975D01*
X137524163Y-129731952D01*
X137718848Y-129668695D01*
X137901239Y-129575762D01*
X137994219Y-129508207D01*
X138066842Y-129455446D01*
X138066844Y-129455443D01*
X138066848Y-129455441D01*
X138211595Y-129310694D01*
X138211597Y-129310690D01*
X138211600Y-129310688D01*
X138264361Y-129238065D01*
X138331916Y-129145085D01*
X138424849Y-128962694D01*
X138488106Y-128768009D01*
X138520129Y-128565827D01*
X138520129Y-128361123D01*
X146079129Y-128361123D01*
X146079129Y-128565826D01*
X146111151Y-128768009D01*
X146174410Y-128962698D01*
X146267344Y-129145088D01*
X146387657Y-129310688D01*
X146532415Y-129455446D01*
X146687378Y-129568031D01*
X146698019Y-129575762D01*
X146814236Y-129634978D01*
X146880405Y-129668693D01*
X146880407Y-129668693D01*
X146880410Y-129668695D01*
X146984766Y-129702602D01*
X147075094Y-129731952D01*
X147176186Y-129747963D01*
X147277277Y-129763975D01*
X147277278Y-129763975D01*
X147481980Y-129763975D01*
X147481981Y-129763975D01*
X147684163Y-129731952D01*
X147878848Y-129668695D01*
X148061239Y-129575762D01*
X148154219Y-129508207D01*
X148226842Y-129455446D01*
X148226844Y-129455443D01*
X148226848Y-129455441D01*
X148371595Y-129310694D01*
X148371597Y-129310690D01*
X148371600Y-129310688D01*
X148424361Y-129238065D01*
X148491916Y-129145085D01*
X148584849Y-128962694D01*
X148648106Y-128768009D01*
X148680129Y-128565827D01*
X148680129Y-128361123D01*
X148648106Y-128158941D01*
X148584849Y-127964256D01*
X148584847Y-127964253D01*
X148584847Y-127964251D01*
X148551132Y-127898082D01*
X148491916Y-127781865D01*
X148484185Y-127771224D01*
X148371600Y-127616261D01*
X148226842Y-127471503D01*
X148061242Y-127351190D01*
X148061241Y-127351189D01*
X148061239Y-127351188D01*
X148004282Y-127322166D01*
X147878852Y-127258256D01*
X147684163Y-127194997D01*
X147509624Y-127167353D01*
X147481981Y-127162975D01*
X147277277Y-127162975D01*
X147252958Y-127166826D01*
X147075094Y-127194997D01*
X146880405Y-127258256D01*
X146698015Y-127351190D01*
X146532415Y-127471503D01*
X146387657Y-127616261D01*
X146267344Y-127781861D01*
X146174410Y-127964251D01*
X146111151Y-128158940D01*
X146079129Y-128361123D01*
X138520129Y-128361123D01*
X138488106Y-128158941D01*
X138424849Y-127964256D01*
X138424847Y-127964253D01*
X138424847Y-127964251D01*
X138391132Y-127898082D01*
X138331916Y-127781865D01*
X138324185Y-127771224D01*
X138211600Y-127616261D01*
X138066842Y-127471503D01*
X137901242Y-127351190D01*
X137901241Y-127351189D01*
X137901239Y-127351188D01*
X137844282Y-127322166D01*
X137718852Y-127258256D01*
X137524163Y-127194997D01*
X137349624Y-127167353D01*
X137321981Y-127162975D01*
X137117277Y-127162975D01*
X137092958Y-127166826D01*
X136915094Y-127194997D01*
X136720405Y-127258256D01*
X136538015Y-127351190D01*
X136372415Y-127471503D01*
X136227657Y-127616261D01*
X136107344Y-127781861D01*
X136014410Y-127964251D01*
X135951151Y-128158940D01*
X135919129Y-128361123D01*
X100500500Y-128361123D01*
X100500500Y-125112235D01*
X135934959Y-125112235D01*
X135934959Y-125316938D01*
X135966981Y-125519121D01*
X136030240Y-125713810D01*
X136123174Y-125896200D01*
X136243487Y-126061800D01*
X136388245Y-126206558D01*
X136543208Y-126319143D01*
X136553849Y-126326874D01*
X136670066Y-126386090D01*
X136736235Y-126419805D01*
X136736237Y-126419805D01*
X136736240Y-126419807D01*
X136840596Y-126453714D01*
X136930924Y-126483064D01*
X137032016Y-126499075D01*
X137133107Y-126515087D01*
X137133108Y-126515087D01*
X137337810Y-126515087D01*
X137337811Y-126515087D01*
X137539993Y-126483064D01*
X137734678Y-126419807D01*
X137917069Y-126326874D01*
X138010049Y-126259319D01*
X138082672Y-126206558D01*
X138082674Y-126206555D01*
X138082678Y-126206553D01*
X138227425Y-126061806D01*
X138227427Y-126061802D01*
X138227430Y-126061800D01*
X138280191Y-125989177D01*
X138347746Y-125896197D01*
X138440679Y-125713806D01*
X138503936Y-125519121D01*
X138535959Y-125316939D01*
X138535959Y-125112235D01*
X146094959Y-125112235D01*
X146094959Y-125316938D01*
X146126981Y-125519121D01*
X146190240Y-125713810D01*
X146283174Y-125896200D01*
X146403487Y-126061800D01*
X146548245Y-126206558D01*
X146703208Y-126319143D01*
X146713849Y-126326874D01*
X146830066Y-126386090D01*
X146896235Y-126419805D01*
X146896237Y-126419805D01*
X146896240Y-126419807D01*
X147000596Y-126453714D01*
X147090924Y-126483064D01*
X147192016Y-126499075D01*
X147293107Y-126515087D01*
X147293108Y-126515087D01*
X147497810Y-126515087D01*
X147497811Y-126515087D01*
X147699993Y-126483064D01*
X147894678Y-126419807D01*
X148077069Y-126326874D01*
X148170049Y-126259319D01*
X148242672Y-126206558D01*
X148242674Y-126206555D01*
X148242678Y-126206553D01*
X148387425Y-126061806D01*
X148387427Y-126061802D01*
X148387430Y-126061800D01*
X148440191Y-125989177D01*
X148507746Y-125896197D01*
X148600679Y-125713806D01*
X148663936Y-125519121D01*
X148695959Y-125316939D01*
X148695959Y-125112235D01*
X148663936Y-124910053D01*
X148600679Y-124715368D01*
X148600677Y-124715365D01*
X148600677Y-124715363D01*
X148566962Y-124649194D01*
X148507746Y-124532977D01*
X148500015Y-124522336D01*
X148387430Y-124367373D01*
X148242672Y-124222615D01*
X148077072Y-124102302D01*
X148077071Y-124102301D01*
X148077069Y-124102300D01*
X148020112Y-124073278D01*
X147894682Y-124009368D01*
X147699993Y-123946109D01*
X147525454Y-123918465D01*
X147497811Y-123914087D01*
X147293107Y-123914087D01*
X147268788Y-123917938D01*
X147090924Y-123946109D01*
X146896235Y-124009368D01*
X146713845Y-124102302D01*
X146548245Y-124222615D01*
X146403487Y-124367373D01*
X146283174Y-124532973D01*
X146190240Y-124715363D01*
X146126981Y-124910052D01*
X146094959Y-125112235D01*
X138535959Y-125112235D01*
X138503936Y-124910053D01*
X138440679Y-124715368D01*
X138440677Y-124715365D01*
X138440677Y-124715363D01*
X138406962Y-124649194D01*
X138347746Y-124532977D01*
X138340015Y-124522336D01*
X138227430Y-124367373D01*
X138082672Y-124222615D01*
X137917072Y-124102302D01*
X137917071Y-124102301D01*
X137917069Y-124102300D01*
X137860112Y-124073278D01*
X137734682Y-124009368D01*
X137539993Y-123946109D01*
X137365454Y-123918465D01*
X137337811Y-123914087D01*
X137133107Y-123914087D01*
X137108788Y-123917938D01*
X136930924Y-123946109D01*
X136736235Y-124009368D01*
X136553845Y-124102302D01*
X136388245Y-124222615D01*
X136243487Y-124367373D01*
X136123174Y-124532973D01*
X136030240Y-124715363D01*
X135966981Y-124910052D01*
X135934959Y-125112235D01*
X100500500Y-125112235D01*
X100500500Y-112868872D01*
X100999500Y-112868872D01*
X100999500Y-113131127D01*
X101020436Y-113290140D01*
X101033730Y-113391116D01*
X101055178Y-113471161D01*
X101101602Y-113644418D01*
X101101605Y-113644428D01*
X101201953Y-113886690D01*
X101201958Y-113886700D01*
X101333075Y-114113803D01*
X101492718Y-114321851D01*
X101492726Y-114321860D01*
X101678140Y-114507274D01*
X101678148Y-114507281D01*
X101886196Y-114666924D01*
X102113299Y-114798041D01*
X102113309Y-114798046D01*
X102355571Y-114898394D01*
X102355581Y-114898398D01*
X102608884Y-114966270D01*
X102868880Y-115000500D01*
X102868887Y-115000500D01*
X103131113Y-115000500D01*
X103131120Y-115000500D01*
X103391116Y-114966270D01*
X103644419Y-114898398D01*
X103886697Y-114798043D01*
X104113803Y-114666924D01*
X104321851Y-114507282D01*
X104321855Y-114507277D01*
X104321860Y-114507274D01*
X104507274Y-114321860D01*
X104507277Y-114321855D01*
X104507282Y-114321851D01*
X104666924Y-114113803D01*
X104798043Y-113886697D01*
X104898398Y-113644419D01*
X104966270Y-113391116D01*
X105000500Y-113131120D01*
X105000500Y-112868880D01*
X105000499Y-112868872D01*
X144999500Y-112868872D01*
X144999500Y-113131127D01*
X145020436Y-113290140D01*
X145033730Y-113391116D01*
X145055178Y-113471161D01*
X145101602Y-113644418D01*
X145101605Y-113644428D01*
X145201953Y-113886690D01*
X145201958Y-113886700D01*
X145333075Y-114113803D01*
X145492718Y-114321851D01*
X145492726Y-114321860D01*
X145678140Y-114507274D01*
X145678148Y-114507281D01*
X145886196Y-114666924D01*
X146113299Y-114798041D01*
X146113309Y-114798046D01*
X146355571Y-114898394D01*
X146355581Y-114898398D01*
X146608884Y-114966270D01*
X146868880Y-115000500D01*
X146868887Y-115000500D01*
X147131113Y-115000500D01*
X147131120Y-115000500D01*
X147391116Y-114966270D01*
X147644419Y-114898398D01*
X147886697Y-114798043D01*
X148113803Y-114666924D01*
X148321851Y-114507282D01*
X148321855Y-114507277D01*
X148321860Y-114507274D01*
X148507274Y-114321860D01*
X148507277Y-114321855D01*
X148507282Y-114321851D01*
X148666924Y-114113803D01*
X148798043Y-113886697D01*
X148898398Y-113644419D01*
X148966270Y-113391116D01*
X149000500Y-113131120D01*
X149000500Y-112868880D01*
X148966270Y-112608884D01*
X148898398Y-112355581D01*
X148800204Y-112118520D01*
X148798046Y-112113309D01*
X148798041Y-112113299D01*
X148666924Y-111886196D01*
X148507281Y-111678148D01*
X148507274Y-111678140D01*
X148321860Y-111492726D01*
X148321851Y-111492718D01*
X148113803Y-111333075D01*
X147886700Y-111201958D01*
X147886690Y-111201953D01*
X147644428Y-111101605D01*
X147644421Y-111101603D01*
X147644419Y-111101602D01*
X147391116Y-111033730D01*
X147333339Y-111026123D01*
X147131127Y-110999500D01*
X147131120Y-110999500D01*
X146868880Y-110999500D01*
X146868872Y-110999500D01*
X146637772Y-111029926D01*
X146608884Y-111033730D01*
X146355581Y-111101602D01*
X146355571Y-111101605D01*
X146113309Y-111201953D01*
X146113299Y-111201958D01*
X145886196Y-111333075D01*
X145678148Y-111492718D01*
X145492718Y-111678148D01*
X145333075Y-111886196D01*
X145201958Y-112113299D01*
X145201953Y-112113309D01*
X145101605Y-112355571D01*
X145101602Y-112355581D01*
X145033730Y-112608885D01*
X144999500Y-112868872D01*
X105000499Y-112868872D01*
X104966270Y-112608884D01*
X104898398Y-112355581D01*
X104800204Y-112118520D01*
X104798046Y-112113309D01*
X104798041Y-112113299D01*
X104666924Y-111886196D01*
X104507281Y-111678148D01*
X104507274Y-111678140D01*
X104321860Y-111492726D01*
X104321851Y-111492718D01*
X104113803Y-111333075D01*
X103886700Y-111201958D01*
X103886690Y-111201953D01*
X103644428Y-111101605D01*
X103644421Y-111101603D01*
X103644419Y-111101602D01*
X103391116Y-111033730D01*
X103333339Y-111026123D01*
X103131127Y-110999500D01*
X103131120Y-110999500D01*
X102868880Y-110999500D01*
X102868872Y-110999500D01*
X102637772Y-111029926D01*
X102608884Y-111033730D01*
X102355581Y-111101602D01*
X102355571Y-111101605D01*
X102113309Y-111201953D01*
X102113299Y-111201958D01*
X101886196Y-111333075D01*
X101678148Y-111492718D01*
X101492718Y-111678148D01*
X101333075Y-111886196D01*
X101201958Y-112113299D01*
X101201953Y-112113309D01*
X101101605Y-112355571D01*
X101101602Y-112355581D01*
X101033730Y-112608885D01*
X100999500Y-112868872D01*
X100500500Y-112868872D01*
X100500500Y-110624500D01*
X100520185Y-110557461D01*
X100572989Y-110511706D01*
X100624500Y-110500500D01*
X149375500Y-110500500D01*
X149442539Y-110520185D01*
G37*
G04 #@! TD.AperFunction*
M02*
